<?xml version="1.0" encoding="UTF-8"?>
<!DOCTYPE svg  PUBLIC '-//W3C//DTD SVG 1.1//EN'  'http://www.w3.org/Graphics/SVG/1.1/DTD/svg11.dtd'>
<svg xmlns="http://www.w3.org/2000/svg">
<metadata>Created by FontForge</metadata>
<defs>
<font id="a" horiz-adv-x="522">
<font-face font-family="Vegur" font-weight="700" ascent="765" bbox="-72 -235 992 888" cap-height="688" descent="-235" panose-1="0 0 8 0 0 0 0 0 0 0" underline-position="-50" underline-thickness="50" unicode-range="U+0020-FB02" units-per-em="1000" x-height="478"/>
<missing-glyph d="M0 0v700h500v-700h-500zM250 395l170 255h-340zM280 350l170 -255v510zM80 50h340l-170 255zM50 605v-510l170 255z" horiz-adv-x="500"/>
<glyph d="M523 478v-478h-132v374h-179v-374h-132v374h-67v104h67v7c0 161 97 260 269 260c64 0 117 -15 154 -46l-18 -111c-41 33 -80 47 -135 47c-101 0 -141 -65 -141 -139v-18h314z" glyph-name="fi" horiz-adv-x="579" unicode="fi"/>
<glyph d="M401 0v624c-19 9 -41 11 -70 11c-75 0 -119 -59 -119 -128v-29h114v-104h-114v-374h-132v374h-67v104h67v18c0 157 112 249 255 249c78 0 145 -12 198 -41v-704h-132z" glyph-name="fl" horiz-adv-x="589" unicode="fl"/>
<glyph d="M0 0v700h500v-700h-500zM250 395l170 255h-340zM280 350l170 -255v510zM80 50h340l-170 255zM50 605v-510l170 255z" glyph-name=".notdef" horiz-adv-x="500"/>
<glyph d="M421 206h-214l-62 -206h-142l234 688h158l234 -688h-146zM387 318l-73 243l-73 -243h146z" glyph-name="A" horiz-adv-x="633" unicode="A"/>
<glyph d="M361 742l-97 -7l69 133l140 8zM207 206l-62 -206h-142l234 688h158l234 -688h-146l-62 206h-214zM314 561l-73 -243h146z" glyph-name="Aacute" horiz-adv-x="633" unicode="Á"/>
<glyph d="M195 865h73c2 -39 21 -59 48 -59s46 20 48 59h73c0 -81 -44 -128 -121 -128c-78 0 -121 47 -121 128zM207 206l-62 -206h-142l234 688h158l234 -688h-146l-62 206h-214zM314 561l-73 -243h146z" glyph-name="Abreve" horiz-adv-x="633" unicode="Ă"/>
<glyph d="M449 736h-99l-34 78l-34 -78h-98l79 135h107zM207 206l-62 -206h-142l234 688h158l234 -688h-146l-62 206h-214zM314 561l-73 -243h146z" glyph-name="Acircumflex" horiz-adv-x="633" unicode="Â"/>
<glyph d="M221 857c35 0 63 -28 63 -63s-28 -63 -63 -63s-63 28 -63 63s28 63 63 63zM411 857c35 0 63 -28 63 -63s-28 -63 -63 -63s-63 28 -63 63s28 63 63 63zM207 206l-62 -206h-142l234 688h158l234 -688h-146l-62 206h-214zM314 561l-73 -243h146z" glyph-name="Adieresis" horiz-adv-x="633" unicode="Ä"/>
<glyph d="M298 868l69 -133l-97 7l-112 134zM207 206l-62 -206h-142l234 688h158l234 -688h-146l-62 206h-214zM314 561l-73 -243h146z" glyph-name="Agrave" horiz-adv-x="633" unicode="À"/>
<glyph d="M316 888c49 0 95 -29 95 -84s-46 -84 -95 -84s-95 29 -95 84s46 84 95 84zM316 840c-17 0 -32 -15 -32 -36c0 -22 15 -36 32 -36s32 14 32 36c0 21 -15 36 -32 36zM207 206l-62 -206h-142l234 688h158l234 -688h-146l-62 206h-214zM314 561l-73 -243h146z" glyph-name="Aring" horiz-adv-x="633" unicode="Å"/>
<glyph d="M450 860v-23c0 -61 -33 -86 -77 -86c-17 0 -39 7 -63 16c-21 8 -34 11 -43 11c-14 0 -23 -15 -23 -28h-62v23c0 61 33 86 77 86c19 0 38 -7 62 -16c20 -8 33 -11 42 -11c14 0 25 15 25 28h62zM207 206l-62 -206h-142l234 688h158l234 -688h-146l-62 206h-214zM314 561 l-73 -243h146z" glyph-name="Atilde" horiz-adv-x="633" unicode="Ã"/>
<glyph d="M853 112v-112h-372l-24 206h-208l-91 -206h-141l330 684h478v-112h-293l21 -169h246v-112h-232l23 -179h263zM444 318l-31 261l-115 -261h146z" glyph-name="AE" horiz-adv-x="882" unicode="Æ"/>
<glyph d="M56 0v687c56 7 138 11 180 11c169 0 261 -72 262 -184c1 -90 -59 -143 -141 -162c96 -15 145 -80 145 -163c0 -138 -126 -203 -275 -203c-55 0 -129 5 -171 14zM188 393h35c85 0 135 36 135 99c0 51 -37 94 -113 94c-21 0 -37 0 -57 -2v-191zM188 286v-186 c18 -2 37 -2 55 -2c62 0 119 30 119 89c0 64 -43 99 -127 99h-47z" glyph-name="B" horiz-adv-x="541" unicode="B"/>
<glyph d="M575 142l10 -113c-56 -30 -130 -43 -203 -43c-202 0 -344 122 -344 355c0 236 171 361 367 361c87 0 149 -16 190 -40l-13 -114c-46 25 -105 42 -177 42c-121 0 -225 -82 -225 -238c0 -160 89 -254 222 -254c62 0 114 14 173 44z" glyph-name="C" horiz-adv-x="614" unicode="C"/>
<glyph d="M575 142l10 -113c-51 -27 -118 -41 -184 -43l-12 -20c48 -5 70 -36 70 -75c0 -62 -55 -92 -128 -92c-25 0 -54 5 -76 17l27 58c16 -7 30 -9 50 -9c29 0 43 12 43 26c0 20 -19 30 -75 30l31 68c-175 19 -293 139 -293 352c0 236 171 361 367 361c87 0 149 -16 190 -40 l-13 -114c-46 25 -105 42 -177 42c-121 0 -225 -82 -225 -238c0 -160 89 -254 222 -254c62 0 114 14 173 44z" glyph-name="Ccedilla" horiz-adv-x="614" unicode="Ç"/>
<glyph d="M56 -1v685c64 9 147 14 203 14c256 0 389 -133 389 -342c0 -234 -178 -370 -413 -370c-52 0 -125 4 -179 13zM188 580v-478c24 -3 50 -4 65 -4c153 0 253 95 253 246c0 135 -71 242 -236 242c-21 0 -52 -2 -82 -6z" glyph-name="D" horiz-adv-x="681" unicode="D"/>
<glyph d="M472 572h-284v-169h252v-112h-252v-179h288v-112h-420v684h416v-112z" glyph-name="E" horiz-adv-x="505" unicode="E"/>
<glyph d="M315 742l-97 -7l69 133l140 8zM188 572v-169h252v-112h-252v-179h288v-112h-420v684h416v-112h-284z" glyph-name="Eacute" horiz-adv-x="505" unicode="É"/>
<glyph d="M403 736h-99l-34 78l-34 -78h-98l79 135h107zM188 572v-169h252v-112h-252v-179h288v-112h-420v684h416v-112h-284z" glyph-name="Ecircumflex" horiz-adv-x="505" unicode="Ê"/>
<glyph d="M175 857c35 0 63 -28 63 -63s-28 -63 -63 -63s-63 28 -63 63s28 63 63 63zM365 857c35 0 63 -28 63 -63s-28 -63 -63 -63s-63 28 -63 63s28 63 63 63zM472 572h-284v-169h252v-112h-252v-179h288v-112h-420v684h416v-112z" glyph-name="Edieresis" horiz-adv-x="505" unicode="Ë"/>
<glyph d="M252 868l69 -133l-97 7l-112 134zM472 572h-284v-169h252v-112h-252v-179h288v-112h-420v684h416v-112z" glyph-name="Egrave" horiz-adv-x="505" unicode="È"/>
<glyph d="M472 572h-284v-203h252v-112h-252v-257h-132v684h416v-112z" glyph-name="F" horiz-adv-x="484" unicode="F"/>
<glyph d="M596 362v-338c-66 -26 -151 -38 -226 -38c-193 0 -332 111 -332 346c0 242 167 370 368 370c87 0 152 -16 193 -40l-13 -114c-46 25 -108 42 -180 42c-120 0 -226 -86 -226 -247c0 -171 75 -245 199 -245c25 0 57 4 85 13v139h-107v112h239z" glyph-name="G" horiz-adv-x="649" unicode="G"/>
<glyph d="M245 865h73c2 -39 21 -59 48 -59s46 20 48 59h73c0 -81 -44 -128 -121 -128c-78 0 -121 47 -121 128zM596 362v-338c-66 -26 -151 -38 -226 -38c-193 0 -332 111 -332 346c0 242 167 370 368 370c87 0 152 -16 193 -40l-13 -114c-46 25 -108 42 -180 42 c-120 0 -226 -86 -226 -247c0 -171 75 -245 199 -245c25 0 57 4 85 13v139h-107v112h239z" glyph-name="Gbreve" horiz-adv-x="649" unicode="Ğ"/>
<glyph d="M632 0h-132v291h-312v-291h-132v688h132v-285h312v285h132v-688z" glyph-name="H" horiz-adv-x="688" unicode="H"/>
<glyph d="M188 0h-132v688h132v-688z" glyph-name="I" horiz-adv-x="244" unicode="I"/>
<glyph d="M56 0v688h132v-688h-132zM507 688v-571c0 -204 -124 -298 -281 -331l-40 106c130 35 189 92 189 228v568h132z" glyph-name="IJ" horiz-adv-x="559" unicode="Ĳ"/>
<glyph d="M167 742l-97 -7l69 133l140 8zM56 0v688h132v-688h-132z" glyph-name="Iacute" horiz-adv-x="244" unicode="Í"/>
<glyph d="M255 736h-99l-34 78l-34 -78h-98l79 135h107zM56 0v688h132v-688h-132z" glyph-name="Icircumflex" horiz-adv-x="244" unicode="Î"/>
<glyph d="M27 857c35 0 63 -28 63 -63s-28 -63 -63 -63s-63 28 -63 63s28 63 63 63zM217 857c35 0 63 -28 63 -63s-28 -63 -63 -63s-63 28 -63 63s28 63 63 63zM56 0v688h132v-688h-132z" glyph-name="Idieresis" horiz-adv-x="244" unicode="Ï"/>
<glyph d="M122 871c42 0 76 -31 76 -70s-34 -70 -76 -70s-76 31 -76 70s34 70 76 70zM56 0v688h132v-688h-132z" glyph-name="Idotaccent" horiz-adv-x="244" unicode="İ"/>
<glyph d="M104 868l69 -133l-97 7l-112 134zM56 0v688h132v-688h-132z" glyph-name="Igrave" horiz-adv-x="244" unicode="Ì"/>
<glyph d="M263 688v-571c0 -204 -124 -298 -281 -331l-40 106c130 35 189 92 189 228v568h132z" glyph-name="J" horiz-adv-x="315" unicode="J"/>
<glyph d="M307 347l267 -347h-167l-198 274l-21 -25v-249h-132v688h132v-326l242 326h159z" glyph-name="K" horiz-adv-x="571" unicode="K"/>
<glyph d="M198 112h291v-112h-423v688h132v-576z" glyph-name="L" horiz-adv-x="504" unicode="L"/>
<glyph d="M255 688l135 -441c12 -39 23 -79 31 -128c8 49 19 89 31 128l135 441h187l14 -688h-134l-4 338c-1 70 3 173 12 260c-16 -100 -41 -200 -62 -260l-112 -328h-138l-115 328c-21 60 -42 140 -59 240c9 -86 13 -170 12 -240l-4 -338h-130l14 688h187z" glyph-name="M" horiz-adv-x="838" unicode="M"/>
<glyph d="M616 0h-196l-175 378c-28 60 -44 100 -70 180c4 -80 5 -120 5 -180v-378h-128v688h196l175 -378c28 -60 44 -100 70 -180c-4 80 -5 120 -5 180v378h128v-688z" glyph-name="N" horiz-adv-x="668" unicode="N"/>
<glyph d="M468 860v-23c0 -61 -33 -86 -77 -86c-17 0 -39 7 -63 16c-21 8 -34 11 -43 11c-14 0 -23 -15 -23 -28h-62v23c0 61 33 86 77 86c19 0 38 -7 62 -16c20 -8 33 -11 42 -11c14 0 25 15 25 28h62zM420 0l-175 378c-28 60 -44 100 -70 180c4 -80 5 -120 5 -180v-378h-128v688 h196l175 -378c28 -60 44 -100 70 -180c-4 80 -5 120 -5 180v378h128v-688h-196z" glyph-name="Ntilde" horiz-adv-x="668" unicode="Ñ"/>
<glyph d="M376 702c194 0 338 -141 338 -358s-144 -358 -338 -358s-338 141 -338 358s144 358 338 358zM376 590c-125 0 -196 -97 -196 -246s71 -246 196 -246s196 97 196 246s-71 246 -196 246z" glyph-name="O" horiz-adv-x="746" unicode="O"/>
<glyph d="M421 742l-97 -7l69 133l140 8zM376 702c194 0 338 -141 338 -358s-144 -358 -338 -358s-338 141 -338 358s144 358 338 358zM376 590c-125 0 -196 -97 -196 -246s71 -246 196 -246s196 97 196 246s-71 246 -196 246z" glyph-name="Oacute" horiz-adv-x="746" unicode="Ó"/>
<glyph d="M509 736h-99l-34 78l-34 -78h-98l79 135h107zM376 702c194 0 338 -141 338 -358s-144 -358 -338 -358s-338 141 -338 358s144 358 338 358zM376 590c-125 0 -196 -97 -196 -246s71 -246 196 -246s196 97 196 246s-71 246 -196 246z" glyph-name="Ocircumflex" horiz-adv-x="746" unicode="Ô"/>
<glyph d="M281 857c35 0 63 -28 63 -63s-28 -63 -63 -63s-63 28 -63 63s28 63 63 63zM471 857c35 0 63 -28 63 -63s-28 -63 -63 -63s-63 28 -63 63s28 63 63 63zM376 702c194 0 338 -141 338 -358s-144 -358 -338 -358s-338 141 -338 358s144 358 338 358zM376 590 c-125 0 -196 -97 -196 -246s71 -246 196 -246s196 97 196 246s-71 246 -196 246z" glyph-name="Odieresis" horiz-adv-x="746" unicode="Ö"/>
<glyph d="M358 868l69 -133l-97 7l-112 134zM376 702c194 0 338 -141 338 -358s-144 -358 -338 -358s-338 141 -338 358s144 358 338 358zM376 590c-125 0 -196 -97 -196 -246s71 -246 196 -246s196 97 196 246s-71 246 -196 246z" glyph-name="Ograve" horiz-adv-x="746" unicode="Ò"/>
<glyph d="M692 629l-48 -54c45 -60 71 -139 71 -231c0 -217 -144 -358 -338 -358c-77 0 -145 22 -200 62l-57 -64l-82 75l61 69c-38 58 -60 131 -60 216c0 217 144 358 338 358c70 0 133 -18 185 -52l48 54zM196 237l286 323c-29 19 -64 30 -105 30c-125 0 -196 -97 -196 -246 c0 -40 5 -76 15 -107zM551 470l-294 -331c31 -27 72 -41 120 -41c125 0 196 97 196 246c0 48 -7 91 -22 126z" glyph-name="Oslash" horiz-adv-x="747" unicode="Ø"/>
<glyph d="M510 860v-23c0 -61 -33 -86 -77 -86c-17 0 -39 7 -63 16c-21 8 -34 11 -43 11c-14 0 -23 -15 -23 -28h-62v23c0 61 33 86 77 86c19 0 38 -7 62 -16c20 -8 33 -11 42 -11c14 0 25 15 25 28h62zM376 702c194 0 338 -141 338 -358s-144 -358 -338 -358s-338 141 -338 358 s144 358 338 358zM376 590c-125 0 -196 -97 -196 -246s71 -246 196 -246s196 97 196 246s-71 246 -196 246z" glyph-name="Otilde" horiz-adv-x="746" unicode="Õ"/>
<glyph d="M992 112v-112h-420v89c-43 -65 -110 -103 -210 -103c-191 0 -324 141 -324 358s133 358 324 358c100 0 167 -38 210 -103v85h416v-112h-284v-169h252v-112h-252v-179h288zM376 98c126 0 196 95 196 246s-70 246 -196 246s-196 -95 -196 -246s70 -246 196 -246z" glyph-name="OE" horiz-adv-x="1021" unicode="Œ"/>
<glyph d="M56 0v683c58 11 126 15 180 15c194 0 268 -99 268 -215c0 -144 -123 -226 -269 -226c-16 0 -30 1 -47 3v-260h-132zM188 583v-213c15 -2 32 -3 44 -3c75 0 130 37 130 111c0 56 -39 108 -121 108c-20 0 -35 -1 -53 -3z" glyph-name="P" horiz-adv-x="506" unicode="P"/>
<glyph d="M524 -204l-155 190c-193 0 -337 141 -337 358s144 358 338 358s338 -141 338 -358c0 -162 -86 -284 -213 -331l135 -158zM174 344c0 -149 70 -248 195 -248s197 99 197 248s-71 246 -196 246s-196 -97 -196 -246z" glyph-name="Q" horiz-adv-x="740" unicode="Q"/>
<glyph d="M56 0v686c58 8 136 12 190 12c171 0 257 -76 257 -192c0 -92 -60 -146 -145 -163c63 -9 92 -76 108 -154c13 -61 36 -144 53 -189h-144c-16 54 -33 131 -43 181s-24 86 -97 86h-47v-267h-132zM188 374h35c89 0 138 48 138 110c0 59 -34 102 -113 102c-18 0 -38 -1 -60 -3 v-209z" glyph-name="R" horiz-adv-x="538" unicode="R"/>
<glyph d="M36 17l10 116c45 -23 105 -35 148 -35c81 0 135 35 135 91c0 54 -41 86 -119 111c-111 35 -157 97 -157 195c0 145 126 207 259 207c60 0 115 -15 145 -33l-10 -119c-37 24 -91 40 -137 40c-72 0 -118 -34 -118 -88c0 -56 34 -87 121 -114c111 -35 158 -99 158 -185 c0 -143 -124 -217 -280 -217c-46 0 -112 10 -155 31z" glyph-name="S" horiz-adv-x="511" unicode="S"/>
<glyph d="M457 669l-10 -119c-37 24 -91 40 -137 40c-72 0 -118 -34 -118 -88c0 -56 34 -87 121 -114c111 -35 158 -99 158 -185c0 -111 -75 -181 -182 -206l-18 -31c48 -5 70 -36 70 -75c0 -62 -55 -92 -128 -92c-25 0 -54 5 -76 17l27 58c16 -7 30 -9 50 -9c29 0 43 12 43 26 c0 20 -19 30 -75 30l30 65h-21c-46 0 -112 10 -155 31l10 116c45 -23 105 -35 148 -35c81 0 135 35 135 91c0 54 -41 86 -119 111c-111 35 -157 97 -157 195c0 145 126 207 259 207c60 0 115 -15 145 -33z" glyph-name="Scedilla" horiz-adv-x="511" unicode="Ş"/>
<glyph d="M552 572h-208v-572h-132v572h-208v112h548v-112z" glyph-name="T" horiz-adv-x="557" unicode="T"/>
<glyph d="M601 688v-421c0 -193 -120 -283 -279 -283c-157 0 -270 90 -270 253v451h132v-417c0 -113 53 -169 144 -169c87 0 141 51 141 155v431h132z" glyph-name="U" horiz-adv-x="649" unicode="U"/>
<glyph d="M371 740l-97 -7l69 133l140 8zM601 688v-421c0 -193 -120 -283 -279 -283c-157 0 -270 90 -270 253v451h132v-417c0 -113 53 -169 144 -169c87 0 141 51 141 155v431h132z" glyph-name="Uacute" horiz-adv-x="649" unicode="Ú"/>
<glyph d="M459 734h-99l-34 78l-34 -78h-98l79 135h107zM601 688v-421c0 -193 -120 -283 -279 -283c-157 0 -270 90 -270 253v451h132v-417c0 -113 53 -169 144 -169c87 0 141 51 141 155v431h132z" glyph-name="Ucircumflex" horiz-adv-x="649" unicode="Û"/>
<glyph d="M231 855c35 0 63 -28 63 -63s-28 -63 -63 -63s-63 28 -63 63s28 63 63 63zM421 855c35 0 63 -28 63 -63s-28 -63 -63 -63s-63 28 -63 63s28 63 63 63zM601 688v-421c0 -193 -120 -283 -279 -283c-157 0 -270 90 -270 253v451h132v-417c0 -113 53 -169 144 -169 c87 0 141 51 141 155v431h132z" glyph-name="Udieresis" horiz-adv-x="649" unicode="Ü"/>
<glyph d="M308 866l69 -133l-97 7l-112 134zM601 688v-421c0 -193 -120 -283 -279 -283c-157 0 -270 90 -270 253v451h132v-417c0 -113 53 -169 144 -169c87 0 141 51 141 155v431h132z" glyph-name="Ugrave" horiz-adv-x="649" unicode="Ù"/>
<glyph d="M380 0h-153l-238 688h145l172 -568l171 568h141z" glyph-name="V" horiz-adv-x="610" unicode="V"/>
<glyph d="M138 688l92 -400c12 -54 25 -117 32 -171c9 54 22 117 36 171l101 400h144l96 -400c13 -54 26 -117 35 -171c8 54 20 117 33 171l96 400h139l-193 -688h-156l-83 329c-16 65 -33 137 -45 202c-13 -67 -28 -135 -45 -202l-82 -329h-156l-190 688h146z" glyph-name="W" horiz-adv-x="934" unicode="W"/>
<glyph d="M516 740l-97 -7l69 133l140 8zM138 688l92 -400c12 -54 25 -117 32 -171c9 54 22 117 36 171l101 400h144l96 -400c13 -54 26 -117 35 -171c8 54 20 117 33 171l96 400h139l-193 -688h-156l-83 329c-16 65 -33 137 -45 202c-13 -67 -28 -135 -45 -202l-82 -329h-156 l-190 688h146z" glyph-name="Wacute" horiz-adv-x="934" unicode="Ẃ"/>
<glyph d="M604 734h-99l-34 78l-34 -78h-98l79 135h107zM138 688l92 -400c12 -54 25 -117 32 -171c9 54 22 117 36 171l101 400h144l96 -400c13 -54 26 -117 35 -171c8 54 20 117 33 171l96 400h139l-193 -688h-156l-83 329c-16 65 -33 137 -45 202c-13 -67 -28 -135 -45 -202 l-82 -329h-156l-190 688h146z" glyph-name="Wcircumflex" horiz-adv-x="934" unicode="Ŵ"/>
<glyph d="M376 855c35 0 63 -28 63 -63s-28 -63 -63 -63s-63 28 -63 63s28 63 63 63zM566 855c35 0 63 -28 63 -63s-28 -63 -63 -63s-63 28 -63 63s28 63 63 63zM138 688l92 -400c12 -54 25 -117 32 -171c9 54 22 117 36 171l101 400h144l96 -400c13 -54 26 -117 35 -171 c8 54 20 117 33 171l96 400h139l-193 -688h-156l-83 329c-16 65 -33 137 -45 202c-13 -67 -28 -135 -45 -202l-82 -329h-156l-190 688h146z" glyph-name="Wdieresis" horiz-adv-x="934" unicode="Ẅ"/>
<glyph d="M453 866l69 -133l-97 7l-112 134zM138 688l92 -400c12 -54 25 -117 32 -171c9 54 22 117 36 171l101 400h144l96 -400c13 -54 26 -117 35 -171c8 54 20 117 33 171l96 400h139l-193 -688h-156l-83 329c-16 65 -33 137 -45 202c-13 -67 -28 -135 -45 -202l-82 -329h-156 l-190 688h146z" glyph-name="Wgrave" horiz-adv-x="934" unicode="Ẁ"/>
<glyph d="M371 340l211 -340h-160l-139 249l-143 -249h-151l219 349l-203 339h158l130 -250l145 250h153z" glyph-name="X" horiz-adv-x="598" unicode="X"/>
<glyph d="M355 292v-292h-132v292l-227 396h163l134 -280l137 280h152z" glyph-name="Y" horiz-adv-x="577" unicode="Y"/>
<glyph d="M334 740l-97 -7l69 133l140 8zM355 0h-132v292l-227 396h163l134 -280l137 280h152l-227 -396v-292z" glyph-name="Yacute" horiz-adv-x="577" unicode="Ý"/>
<glyph d="M422 734h-99l-34 78l-34 -78h-98l79 135h107zM355 0h-132v292l-227 396h163l134 -280l137 280h152l-227 -396v-292z" glyph-name="Ycircumflex" horiz-adv-x="577" unicode="Ŷ"/>
<glyph d="M194 855c35 0 63 -28 63 -63s-28 -63 -63 -63s-63 28 -63 63s28 63 63 63zM384 855c35 0 63 -28 63 -63s-28 -63 -63 -63s-63 28 -63 63s28 63 63 63zM355 0h-132v292l-227 396h163l134 -280l137 280h152l-227 -396v-292z" glyph-name="Ydieresis" horiz-adv-x="577" unicode="Ÿ"/>
<glyph d="M271 866l69 -133l-97 7l-112 134zM355 0h-132v292l-227 396h163l134 -280l137 280h152l-227 -396v-292z" glyph-name="Ygrave" horiz-adv-x="577" unicode="Ỳ"/>
<glyph d="M541 576l-344 -464h349v-112h-515v105l343 467h-317v112h484v-108z" glyph-name="Z" horiz-adv-x="564" unicode="Z"/>
<glyph d="M74 341l-8 112c41 25 106 39 162 39c144 0 202 -71 202 -181v-311h-111l-10 61c-28 -52 -67 -71 -131 -71c-87 0 -145 53 -145 142c0 103 93 160 219 160c19 0 34 -1 46 -2v11c0 47 -27 77 -90 77c-39 0 -95 -12 -134 -37zM298 182v27c-12 1 -26 2 -39 2 c-56 0 -93 -27 -93 -70c0 -33 24 -56 60 -56c39 0 72 41 72 97z" glyph-name="a" horiz-adv-x="482" unicode="a"/>
<glyph d="M297 540l-97 -7l69 133l140 8zM74 341l-8 112c41 25 106 39 162 39c144 0 202 -71 202 -181v-311h-111l-10 61c-28 -52 -67 -71 -131 -71c-87 0 -145 53 -145 142c0 103 93 160 219 160c19 0 34 -1 46 -2v11c0 47 -27 77 -90 77c-39 0 -95 -12 -134 -37zM298 182v27 c-12 1 -26 2 -39 2c-56 0 -93 -27 -93 -70c0 -33 24 -56 60 -56c39 0 72 41 72 97z" glyph-name="aacute" horiz-adv-x="482" unicode="á"/>
<glyph d="M131 663h73c2 -39 21 -59 48 -59s46 20 48 59h73c0 -81 -44 -128 -121 -128c-78 0 -121 47 -121 128zM74 341l-8 112c41 25 106 39 162 39c144 0 202 -71 202 -181v-311h-111l-10 61c-28 -52 -67 -71 -131 -71c-87 0 -145 53 -145 142c0 103 93 160 219 160 c19 0 34 -1 46 -2v11c0 47 -27 77 -90 77c-39 0 -95 -12 -134 -37zM298 182v27c-12 1 -26 2 -39 2c-56 0 -93 -27 -93 -70c0 -33 24 -56 60 -56c39 0 72 41 72 97z" glyph-name="abreve" horiz-adv-x="482" unicode="ă"/>
<glyph d="M385 534h-99l-34 78l-34 -78h-98l79 135h107zM74 341l-8 112c41 25 106 39 162 39c144 0 202 -71 202 -181v-311h-111l-10 61c-28 -52 -67 -71 -131 -71c-87 0 -145 53 -145 142c0 103 93 160 219 160c19 0 34 -1 46 -2v11c0 47 -27 77 -90 77c-39 0 -95 -12 -134 -37z M298 182v27c-12 1 -26 2 -39 2c-56 0 -93 -27 -93 -70c0 -33 24 -56 60 -56c39 0 72 41 72 97z" glyph-name="acircumflex" horiz-adv-x="482" unicode="â"/>
<glyph d="M157 655c35 0 63 -28 63 -63s-28 -63 -63 -63s-63 28 -63 63s28 63 63 63zM347 655c35 0 63 -28 63 -63s-28 -63 -63 -63s-63 28 -63 63s28 63 63 63zM74 341l-8 112c41 25 106 39 162 39c144 0 202 -71 202 -181v-311h-111l-10 61c-28 -52 -67 -71 -131 -71 c-87 0 -145 53 -145 142c0 103 93 160 219 160c19 0 34 -1 46 -2v11c0 47 -27 77 -90 77c-39 0 -95 -12 -134 -37zM298 182v27c-12 1 -26 2 -39 2c-56 0 -93 -27 -93 -70c0 -33 24 -56 60 -56c39 0 72 41 72 97z" glyph-name="adieresis" horiz-adv-x="482" unicode="ä"/>
<glyph d="M234 666l69 -133l-97 7l-112 134zM74 341l-8 112c41 25 106 39 162 39c144 0 202 -71 202 -181v-311h-111l-10 61c-28 -52 -67 -71 -131 -71c-87 0 -145 53 -145 142c0 103 93 160 219 160c19 0 34 -1 46 -2v11c0 47 -27 77 -90 77c-39 0 -95 -12 -134 -37zM298 182v27 c-12 1 -26 2 -39 2c-56 0 -93 -27 -93 -70c0 -33 24 -56 60 -56c39 0 72 41 72 97z" glyph-name="agrave" horiz-adv-x="482" unicode="à"/>
<glyph d="M252 686c49 0 95 -29 95 -84s-46 -84 -95 -84s-95 29 -95 84s46 84 95 84zM252 638c-17 0 -32 -15 -32 -36c0 -22 15 -36 32 -36s32 14 32 36c0 21 -15 36 -32 36zM74 341l-8 112c41 25 106 39 162 39c144 0 202 -71 202 -181v-311h-111l-10 61c-28 -52 -67 -71 -131 -71 c-87 0 -145 53 -145 142c0 103 93 160 219 160c19 0 34 -1 46 -2v11c0 47 -27 77 -90 77c-39 0 -95 -12 -134 -37zM298 182v27c-12 1 -26 2 -39 2c-56 0 -93 -27 -93 -70c0 -33 24 -56 60 -56c39 0 72 41 72 97z" glyph-name="aring" horiz-adv-x="482" unicode="å"/>
<glyph d="M386 658v-23c0 -61 -33 -86 -77 -86c-17 0 -39 7 -63 16c-21 8 -34 11 -43 11c-14 0 -23 -15 -23 -28h-62v23c0 61 33 86 77 86c19 0 38 -7 62 -16c20 -8 33 -11 42 -11c14 0 25 15 25 28h62zM74 341l-8 112c41 25 106 39 162 39c144 0 202 -71 202 -181v-311h-111 l-10 61c-28 -52 -67 -71 -131 -71c-87 0 -145 53 -145 142c0 103 93 160 219 160c19 0 34 -1 46 -2v11c0 47 -27 77 -90 77c-39 0 -95 -12 -134 -37zM298 182v27c-12 1 -26 2 -39 2c-56 0 -93 -27 -93 -70c0 -33 24 -56 60 -56c39 0 72 41 72 97z" glyph-name="atilde" horiz-adv-x="482" unicode="ã"/>
<glyph d="M79 341l-8 112c41 25 99 39 155 39c72 0 122 -31 150 -80c33 48 83 80 151 80c138 0 195 -111 195 -243c0 -17 -2 -39 -5 -55h-289c9 -64 65 -98 127 -98c49 0 93 11 128 30l9 -102c-38 -21 -84 -34 -155 -34c-63 0 -133 33 -174 100c-40 -70 -102 -100 -178 -100 c-87 0 -152 53 -152 142c0 103 96 155 222 155c19 0 34 -1 46 -2v5c0 47 -25 88 -88 88c-39 0 -95 -12 -134 -37zM429 287h173c0 51 -23 105 -81 105c-48 0 -86 -39 -92 -105zM301 182v22c-12 1 -26 2 -39 2c-56 0 -96 -22 -96 -65c0 -33 24 -56 60 -56c39 0 75 41 75 97z " glyph-name="ae" horiz-adv-x="746" unicode="æ"/>
<glyph d="M188 735v-326c32 57 86 83 152 83c124 0 200 -106 200 -244c0 -161 -91 -258 -218 -258c-67 0 -124 34 -145 92l-10 -82h-111v735h132zM188 258v-47c0 -73 54 -120 107 -120c63 0 109 50 109 147c0 80 -34 144 -115 144c-54 0 -101 -46 -101 -124z" glyph-name="b" horiz-adv-x="570" unicode="b"/>
<glyph d="M401 120l9 -104c-37 -18 -87 -26 -140 -26c-142 0 -240 90 -240 246c0 154 115 256 255 256c53 0 99 -8 130 -24l-9 -108c-28 13 -64 22 -106 22c-78 0 -134 -55 -134 -140c0 -90 56 -146 132 -146c34 0 71 8 103 24z" glyph-name="c" horiz-adv-x="436" unicode="c"/>
<glyph d="M401 120l9 -104c-31 -15 -70 -23 -113 -25l-10 -18c48 -5 70 -36 70 -75c0 -62 -55 -92 -128 -92c-25 0 -54 5 -76 17l27 58c16 -7 30 -9 50 -9c29 0 43 12 43 26c0 20 -19 30 -75 30l29 65c-118 16 -197 103 -197 243c0 154 115 256 255 256c53 0 99 -8 130 -24l-9 -108 c-28 13 -64 22 -106 22c-78 0 -134 -55 -134 -140c0 -90 56 -146 132 -146c34 0 71 8 103 24z" glyph-name="ccedilla" horiz-adv-x="436" unicode="ç"/>
<glyph d="M514 735v-735h-111l-12 92c-30 -70 -88 -102 -161 -102c-124 0 -200 106 -200 244c0 161 91 258 218 258c58 0 108 -25 134 -69v312h132zM382 224v47c0 73 -54 120 -107 120c-63 0 -109 -50 -109 -147c0 -80 34 -144 115 -144c54 0 101 46 101 124z" glyph-name="d" horiz-adv-x="570" unicode="d"/>
<glyph d="M412 125l9 -100c-38 -21 -93 -35 -167 -35c-132 0 -224 78 -224 236c0 164 97 266 226 266c138 0 198 -111 198 -243c0 -17 -2 -40 -5 -56h-293c7 -64 52 -98 124 -98c53 0 96 11 132 30zM157 288h177c0 56 -23 102 -84 102c-48 0 -85 -36 -93 -102z" glyph-name="e" horiz-adv-x="478" unicode="e"/>
<glyph d="M298 540l-97 -7l69 133l140 8zM412 125l9 -100c-38 -21 -93 -35 -167 -35c-132 0 -224 78 -224 236c0 164 97 266 226 266c138 0 198 -111 198 -243c0 -17 -2 -40 -5 -56h-293c7 -64 52 -98 124 -98c53 0 96 11 132 30zM157 288h177c0 56 -23 102 -84 102 c-48 0 -85 -36 -93 -102z" glyph-name="eacute" horiz-adv-x="478" unicode="é"/>
<glyph d="M386 534h-99l-34 78l-34 -78h-98l79 135h107zM412 125l9 -100c-38 -21 -93 -35 -167 -35c-132 0 -224 78 -224 236c0 164 97 266 226 266c138 0 198 -111 198 -243c0 -17 -2 -40 -5 -56h-293c7 -64 52 -98 124 -98c53 0 96 11 132 30zM157 288h177c0 56 -23 102 -84 102 c-48 0 -85 -36 -93 -102z" glyph-name="ecircumflex" horiz-adv-x="478" unicode="ê"/>
<glyph d="M158 655c35 0 63 -28 63 -63s-28 -63 -63 -63s-63 28 -63 63s28 63 63 63zM348 655c35 0 63 -28 63 -63s-28 -63 -63 -63s-63 28 -63 63s28 63 63 63zM412 125l9 -100c-38 -21 -93 -35 -167 -35c-132 0 -224 78 -224 236c0 164 97 266 226 266c138 0 198 -111 198 -243 c0 -17 -2 -40 -5 -56h-293c7 -64 52 -98 124 -98c53 0 96 11 132 30zM157 288h177c0 56 -23 102 -84 102c-48 0 -85 -36 -93 -102z" glyph-name="edieresis" horiz-adv-x="478" unicode="ë"/>
<glyph d="M235 666l69 -133l-97 7l-112 134zM412 125l9 -100c-38 -21 -93 -35 -167 -35c-132 0 -224 78 -224 236c0 164 97 266 226 266c138 0 198 -111 198 -243c0 -17 -2 -40 -5 -56h-293c7 -64 52 -98 124 -98c53 0 96 11 132 30zM157 288h177c0 56 -23 102 -84 102 c-48 0 -85 -36 -93 -102z" glyph-name="egrave" horiz-adv-x="478" unicode="è"/>
<glyph d="M80 478v28c0 160 104 239 237 239c30 0 62 -5 82 -13l-9 -109c-19 8 -44 12 -72 12c-65 0 -106 -46 -106 -118v-39h131v-104h-131v-374h-132v374h-67v104h67z" glyph-name="f" horiz-adv-x="351" unicode="f"/>
<glyph d="M514 482v-416c0 -201 -123 -281 -280 -281c-62 0 -118 13 -159 41l5 117c49 -34 100 -50 156 -50c96 0 151 59 147 157v25c-32 -58 -86 -85 -153 -85c-124 0 -200 106 -200 244c0 161 91 258 218 258c67 0 124 -34 145 -92l10 82h111zM382 224v47c0 73 -54 120 -107 120 c-63 0 -109 -50 -109 -147c0 -80 34 -144 115 -144c54 0 101 46 101 124z" glyph-name="g" horiz-adv-x="570" unicode="g"/>
<glyph d="M167 663h73c2 -39 21 -59 48 -59s46 20 48 59h73c0 -81 -44 -128 -121 -128c-78 0 -121 47 -121 128zM514 482v-416c0 -201 -123 -281 -280 -281c-62 0 -118 13 -159 41l5 117c49 -34 100 -50 156 -50c96 0 151 59 147 157v25c-32 -58 -86 -85 -153 -85 c-124 0 -200 106 -200 244c0 161 91 258 218 258c67 0 124 -34 145 -92l10 82h111zM382 224v47c0 73 -54 120 -107 120c-63 0 -109 -50 -109 -147c0 -80 34 -144 115 -144c54 0 101 46 101 124z" glyph-name="gbreve" horiz-adv-x="570" unicode="ğ"/>
<glyph d="M188 735v-319c26 51 75 74 131 74c108 0 172 -72 172 -170v-320h-132v267c0 62 -28 105 -84 105c-55 0 -87 -48 -87 -124v-248h-132v735h132z" glyph-name="h" horiz-adv-x="543" unicode="h"/>
<glyph d="M122 672c42 0 76 -31 76 -70s-34 -70 -76 -70s-76 31 -76 70s34 70 76 70zM56 0v482h132v-482h-132z" glyph-name="i" horiz-adv-x="244" unicode="i"/>
<glyph d="M192 0h-132v482h132v-482z" glyph-name="dotlessi" horiz-adv-x="252" unicode="ı"/>
<glyph d="M171 540l-97 -7l69 133l140 8zM60 0v482h132v-482h-132z" glyph-name="iacute" horiz-adv-x="252" unicode="í"/>
<glyph d="M259 534h-99l-34 78l-34 -78h-98l79 135h107zM60 0v482h132v-482h-132z" glyph-name="icircumflex" horiz-adv-x="252" unicode="î"/>
<glyph d="M31 655c35 0 63 -28 63 -63s-28 -63 -63 -63s-63 28 -63 63s28 63 63 63zM221 655c35 0 63 -28 63 -63s-28 -63 -63 -63s-63 28 -63 63s28 63 63 63zM60 0v482h132v-482h-132z" glyph-name="idieresis" horiz-adv-x="252" unicode="ï"/>
<glyph d="M108 666l69 -133l-97 7l-112 134zM60 0v482h132v-482h-132z" glyph-name="igrave" horiz-adv-x="252" unicode="ì"/>
<glyph d="M122 672c42 0 76 -31 76 -70s-34 -70 -76 -70s-76 31 -76 70s34 70 76 70zM393 672c42 0 76 -31 76 -70s-34 -70 -76 -70s-76 31 -76 70s34 70 76 70zM56 482h132v-482h-132v482zM459 482v-336c0 -201 -91 -298 -229 -361l-58 108c114 52 155 123 155 250v339h132z" glyph-name="ij" horiz-adv-x="513" unicode="ĳ"/>
<glyph d="M149 672c42 0 76 -31 76 -70s-34 -70 -76 -70s-76 31 -76 70s34 70 76 70zM215 482v-336c0 -201 -91 -298 -229 -361l-58 108c114 52 155 123 155 250v339h132z" glyph-name="j" horiz-adv-x="269" unicode="j"/>
<glyph d="M307 264l190 -264h-168l-122 184l-19 -22v-162h-132v735h132v-458l151 205h159z" glyph-name="k" horiz-adv-x="482" unicode="k"/>
<glyph d="M188 0h-132v735h132v-735z" glyph-name="l" horiz-adv-x="244" unicode="l"/>
<glyph d="M167 482l11 -91c20 68 75 101 139 101c78 0 129 -38 151 -95c28 58 79 95 142 95c108 0 164 -72 164 -170v-322h-132v269c0 62 -19 105 -75 105c-53 0 -86 -50 -86 -126v-248h-132v269c0 62 -19 105 -75 105c-53 0 -86 -50 -86 -126v-248h-132v482h111z" glyph-name="m" horiz-adv-x="826" unicode="m"/>
<glyph d="M167 482l11 -91c21 69 76 101 141 101c108 0 172 -72 172 -170v-322h-132v269c0 62 -28 105 -84 105c-55 0 -87 -50 -87 -126v-248h-132v482h111z" glyph-name="n" horiz-adv-x="543" unicode="n"/>
<glyph d="M419 658v-23c0 -61 -33 -86 -77 -86c-17 0 -39 7 -63 16c-21 8 -34 11 -43 11c-14 0 -23 -15 -23 -28h-62v23c0 61 33 86 77 86c19 0 38 -7 62 -16c20 -8 33 -11 42 -11c14 0 25 15 25 28h62zM167 482l11 -91c21 69 76 101 141 101c108 0 172 -72 172 -170v-322h-132v269 c0 62 -28 105 -84 105c-55 0 -87 -50 -87 -126v-248h-132v482h111z" glyph-name="ntilde" horiz-adv-x="543" unicode="ñ"/>
<glyph d="M271 492c134 0 241 -89 241 -251c0 -161 -107 -251 -241 -251s-241 90 -241 251c0 162 107 251 241 251zM271 390c-61 0 -102 -50 -102 -149c0 -98 41 -149 102 -149s102 51 102 149c0 99 -41 149 -102 149z" glyph-name="o" horiz-adv-x="542" unicode="o"/>
<glyph d="M316 540l-97 -7l69 133l140 8zM271 492c134 0 241 -89 241 -251c0 -161 -107 -251 -241 -251s-241 90 -241 251c0 162 107 251 241 251zM271 390c-61 0 -102 -50 -102 -149c0 -98 41 -149 102 -149s102 51 102 149c0 99 -41 149 -102 149z" glyph-name="oacute" horiz-adv-x="542" unicode="ó"/>
<glyph d="M404 534h-99l-34 78l-34 -78h-98l79 135h107zM271 492c134 0 241 -89 241 -251c0 -161 -107 -251 -241 -251s-241 90 -241 251c0 162 107 251 241 251zM271 390c-61 0 -102 -50 -102 -149c0 -98 41 -149 102 -149s102 51 102 149c0 99 -41 149 -102 149z" glyph-name="ocircumflex" horiz-adv-x="542" unicode="ô"/>
<glyph d="M176 655c35 0 63 -28 63 -63s-28 -63 -63 -63s-63 28 -63 63s28 63 63 63zM366 655c35 0 63 -28 63 -63s-28 -63 -63 -63s-63 28 -63 63s28 63 63 63zM271 492c134 0 241 -89 241 -251c0 -161 -107 -251 -241 -251s-241 90 -241 251c0 162 107 251 241 251zM271 390 c-61 0 -102 -50 -102 -149c0 -98 41 -149 102 -149s102 51 102 149c0 99 -41 149 -102 149z" glyph-name="odieresis" horiz-adv-x="542" unicode="ö"/>
<glyph d="M253 666l69 -133l-97 7l-112 134zM271 492c134 0 241 -89 241 -251c0 -161 -107 -251 -241 -251s-241 90 -241 251c0 162 107 251 241 251zM271 390c-61 0 -102 -50 -102 -149c0 -98 41 -149 102 -149s102 51 102 149c0 99 -41 149 -102 149z" glyph-name="ograve" horiz-adv-x="542" unicode="ò"/>
<glyph d="M523 460l-56 -63c28 -40 45 -92 45 -156c0 -161 -107 -251 -241 -251c-49 0 -95 12 -133 36l-58 -66l-65 60l59 66c-28 40 -44 92 -44 155c0 162 107 251 241 251c49 0 94 -12 132 -35l55 63zM172 197l155 175c-16 12 -35 18 -56 18c-61 0 -102 -50 -102 -149 c0 -16 1 -30 3 -44zM370 287l-156 -176c16 -12 35 -19 57 -19c61 0 102 51 102 149c0 17 -1 32 -3 46z" glyph-name="oslash" horiz-adv-x="538" unicode="ø"/>
<glyph d="M405 658v-23c0 -61 -33 -86 -77 -86c-17 0 -39 7 -63 16c-21 8 -34 11 -43 11c-14 0 -23 -15 -23 -28h-62v23c0 61 33 86 77 86c19 0 38 -7 62 -16c20 -8 33 -11 42 -11c14 0 25 15 25 28h62zM271 492c134 0 241 -89 241 -251c0 -161 -107 -251 -241 -251 s-241 90 -241 251c0 162 107 251 241 251zM271 390c-61 0 -102 -50 -102 -149c0 -98 41 -149 102 -149s102 51 102 149c0 99 -41 149 -102 149z" glyph-name="otilde" horiz-adv-x="542" unicode="õ"/>
<glyph d="M758 126l9 -102c-38 -21 -92 -34 -166 -34c-72 0 -127 30 -161 82c-37 -52 -96 -82 -169 -82c-134 0 -241 90 -241 251c0 162 107 251 241 251c75 0 133 -31 171 -84c34 52 87 84 157 84c138 0 198 -111 198 -243c0 -17 -2 -39 -5 -55h-292c9 -64 54 -98 127 -98 c52 0 96 11 131 30zM501 287h176c0 51 -26 105 -84 105c-48 0 -86 -39 -92 -105zM271 92c61 0 102 51 102 149c0 99 -41 149 -102 149s-102 -50 -102 -149c0 -98 41 -149 102 -149z" glyph-name="oe" horiz-adv-x="821" unicode="œ"/>
<glyph d="M167 478l11 -89c30 71 88 103 162 103c124 0 200 -106 200 -244c0 -161 -91 -258 -218 -258c-58 0 -108 25 -134 69v-264h-132v683h111zM188 258v-47c0 -73 54 -120 107 -120c63 0 109 50 109 147c0 80 -34 144 -115 144c-54 0 -101 -46 -101 -124z" glyph-name="p" horiz-adv-x="570" unicode="p"/>
<glyph d="M514 478v-683h-132v278c-32 -57 -86 -83 -152 -83c-124 0 -200 106 -200 244c0 161 91 258 218 258c67 0 124 -34 145 -93l10 79h111zM382 224v47c0 73 -54 120 -107 120c-63 0 -109 -50 -109 -147c0 -80 34 -144 115 -144c54 0 101 46 101 124z" glyph-name="q" horiz-adv-x="570" unicode="q"/>
<glyph d="M167 482l10 -81c17 55 70 91 116 91c17 0 37 -3 48 -8l-5 -117c-16 7 -31 9 -55 9c-62 0 -93 -59 -93 -140v-236h-132v482h111z" glyph-name="r" horiz-adv-x="357" unicode="r"/>
<glyph d="M35 16l10 105c42 -19 80 -25 116 -25c43 0 69 17 69 44c0 26 -22 40 -63 51c-85 22 -122 66 -122 141c0 105 90 159 188 159c55 0 93 -9 121 -21l-8 -108c-30 16 -62 24 -98 24c-40 0 -69 -17 -69 -47c0 -27 21 -43 54 -51c94 -22 130 -68 130 -140 c0 -98 -90 -158 -202 -158c-42 0 -90 9 -126 26z" glyph-name="s" horiz-adv-x="391" unicode="s"/>
<glyph d="M354 470l-8 -108c-30 16 -62 24 -98 24c-40 0 -69 -17 -69 -47c0 -27 21 -43 54 -51c94 -22 130 -68 130 -140c0 -73 -50 -125 -123 -147h2l-20 -35c48 -5 70 -36 70 -75c0 -62 -55 -92 -128 -92c-25 0 -54 5 -76 17l27 58c16 -7 30 -9 50 -9c29 0 43 12 43 26 c0 20 -19 30 -75 30l31 69h-3c-42 0 -90 9 -126 26l10 105c42 -19 80 -25 116 -25c43 0 69 17 69 44c0 26 -22 40 -63 51c-85 22 -122 66 -122 141c0 105 90 159 188 159c55 0 93 -9 121 -21z" glyph-name="scedilla" horiz-adv-x="391" unicode="ş"/>
<glyph d="M244 4l5 111c29 -9 60 -13 82 -13c45 0 93 32 93 91c0 70 -42 100 -140 101v114c73 0 121 55 121 125c0 63 -34 102 -98 102c-61 0 -101 -54 -101 -141v-494h-132v374h-59v104h59v7c0 182 123 260 236 260c143 0 235 -74 235 -188c0 -92 -63 -152 -134 -164 c104 -21 155 -98 155 -187c0 -147 -111 -214 -240 -214c-25 0 -57 4 -82 12z" glyph-name="germandbls" horiz-adv-x="600" unicode="ß"/>
<glyph d="M215 478h134v-104h-134v-194c0 -58 24 -82 70 -82c21 0 44 4 62 11l5 -100c-28 -12 -68 -19 -103 -19c-109 0 -166 54 -166 163v221h-71v104h71v122h132v-122z" glyph-name="t" horiz-adv-x="377" unicode="t"/>
<glyph d="M487 482v-482h-111l-11 91c-21 -69 -76 -101 -141 -101c-108 0 -172 72 -172 170v322h132v-269c0 -62 28 -105 84 -105c55 0 87 50 87 126v248h132z" glyph-name="u" horiz-adv-x="543" unicode="u"/>
<glyph d="M314 540l-97 -7l69 133l140 8zM487 0h-111l-11 91c-21 -69 -76 -101 -141 -101c-108 0 -172 72 -172 170v322h132v-269c0 -62 28 -105 84 -105c55 0 87 50 87 126v248h132v-482z" glyph-name="uacute" horiz-adv-x="543" unicode="ú"/>
<glyph d="M402 534h-99l-34 78l-34 -78h-98l79 135h107zM487 0h-111l-11 91c-21 -69 -76 -101 -141 -101c-108 0 -172 72 -172 170v322h132v-269c0 -62 28 -105 84 -105c55 0 87 50 87 126v248h132v-482z" glyph-name="ucircumflex" horiz-adv-x="543" unicode="û"/>
<glyph d="M174 655c35 0 63 -28 63 -63s-28 -63 -63 -63s-63 28 -63 63s28 63 63 63zM364 655c35 0 63 -28 63 -63s-28 -63 -63 -63s-63 28 -63 63s28 63 63 63zM487 0h-111l-11 91c-21 -69 -76 -101 -141 -101c-108 0 -172 72 -172 170v322h132v-269c0 -62 28 -105 84 -105 c55 0 87 50 87 126v248h132v-482z" glyph-name="udieresis" horiz-adv-x="543" unicode="ü"/>
<glyph d="M251 666l69 -133l-97 7l-112 134zM487 0h-111l-11 91c-21 -69 -76 -101 -141 -101c-108 0 -172 72 -172 170v322h132v-269c0 -62 28 -105 84 -105c55 0 87 50 87 126v248h132v-482z" glyph-name="ugrave" horiz-adv-x="543" unicode="ù"/>
<glyph d="M328 0h-150l-175 482h155l98 -368l101 368h150z" glyph-name="v" horiz-adv-x="502" unicode="v"/>
<glyph d="M581 0h-148l-46 198c-10 42 -19 100 -25 200c-6 -100 -15 -158 -25 -200l-47 -198h-150l-137 482h144l48 -244c8 -40 15 -84 22 -145c7 61 14 105 23 145l53 240h143l51 -240c8 -40 16 -85 24 -145c6 60 13 105 21 145l48 244h137z" glyph-name="w" horiz-adv-x="712" unicode="w"/>
<glyph d="M409 540l-97 -7l69 133l140 8zM433 0l-46 198c-10 42 -19 100 -25 200c-6 -100 -15 -158 -25 -200l-47 -198h-150l-137 482h144l48 -244c8 -40 15 -84 22 -145c7 61 14 105 23 145l53 240h143l51 -240c8 -40 16 -85 24 -145c6 60 13 105 21 145l48 244h137l-136 -482 h-148z" glyph-name="wacute" horiz-adv-x="712" unicode="ẃ"/>
<glyph d="M497 534h-99l-34 78l-34 -78h-98l79 135h107zM433 0l-46 198c-10 42 -19 100 -25 200c-6 -100 -15 -158 -25 -200l-47 -198h-150l-137 482h144l48 -244c8 -40 15 -84 22 -145c7 61 14 105 23 145l53 240h143l51 -240c8 -40 16 -85 24 -145c6 60 13 105 21 145l48 244h137 l-136 -482h-148z" glyph-name="wcircumflex" horiz-adv-x="712" unicode="ŵ"/>
<glyph d="M269 655c35 0 63 -28 63 -63s-28 -63 -63 -63s-63 28 -63 63s28 63 63 63zM459 655c35 0 63 -28 63 -63s-28 -63 -63 -63s-63 28 -63 63s28 63 63 63zM433 0l-46 198c-10 42 -19 100 -25 200c-6 -100 -15 -158 -25 -200l-47 -198h-150l-137 482h144l48 -244 c8 -40 15 -84 22 -145c7 61 14 105 23 145l53 240h143l51 -240c8 -40 16 -85 24 -145c6 60 13 105 21 145l48 244h137l-136 -482h-148z" glyph-name="wdieresis" horiz-adv-x="712" unicode="ẅ"/>
<glyph d="M346 666l69 -133l-97 7l-112 134zM433 0l-46 198c-10 42 -19 100 -25 200c-6 -100 -15 -158 -25 -200l-47 -198h-150l-137 482h144l48 -244c8 -40 15 -84 22 -145c7 61 14 105 23 145l53 240h143l51 -240c8 -40 16 -85 24 -145c6 60 13 105 21 145l48 244h137l-136 -482 h-148z" glyph-name="wgrave" horiz-adv-x="712" unicode="ẁ"/>
<glyph d="M301 241l160 -241h-154l-84 149l-82 -149h-147l155 237l-152 245h153l80 -156l86 156h147z" glyph-name="x" horiz-adv-x="454" unicode="x"/>
<glyph d="M507 482l-168 -453c-57 -151 -151 -223 -274 -244l-36 110c71 17 124 53 149 102l-175 485h155l98 -368l101 368h150z" glyph-name="y" horiz-adv-x="502" unicode="y"/>
<glyph d="M300 541l-97 -7l69 133l140 8zM507 482l-168 -453c-57 -151 -151 -223 -274 -244l-36 110c71 17 124 53 149 102l-175 485h155l98 -368l101 368h150z" glyph-name="yacute" horiz-adv-x="502" unicode="ý"/>
<glyph d="M388 535h-99l-34 78l-34 -78h-98l79 135h107zM507 482l-168 -453c-57 -151 -151 -223 -274 -244l-36 110c71 17 124 53 149 102l-175 485h155l98 -368l101 368h150z" glyph-name="ycircumflex" horiz-adv-x="502" unicode="ŷ"/>
<glyph d="M160 656c35 0 63 -28 63 -63s-28 -63 -63 -63s-63 28 -63 63s28 63 63 63zM350 656c35 0 63 -28 63 -63s-28 -63 -63 -63s-63 28 -63 63s28 63 63 63zM507 482l-168 -453c-57 -151 -151 -223 -274 -244l-36 110c71 17 124 53 149 102l-175 485h155l98 -368l101 368h150z " glyph-name="ydieresis" horiz-adv-x="502" unicode="ÿ"/>
<glyph d="M237 667l69 -133l-97 7l-112 134zM507 482l-168 -453c-57 -151 -151 -223 -274 -244l-36 110c71 17 124 53 149 102l-175 485h155l98 -368l101 368h150z" glyph-name="ygrave" horiz-adv-x="502" unicode="ỳ"/>
<glyph d="M396 378l-209 -274h208v-104h-364v97l206 277h-196v104h355v-100z" glyph-name="z" horiz-adv-x="427" unicode="z"/>
<glyph d="M261 676c129 0 233 -87 233 -345s-104 -345 -233 -345s-233 87 -233 345s104 345 233 345zM261 564c-65 0 -91 -86 -91 -233s26 -233 91 -233s91 86 91 233s-26 233 -91 233z" glyph-name="zero" unicode="0"/>
<glyph d="M427 0h-132v509l-194 -112l-4 124l215 141h115v-662z" glyph-name="one" unicode="1"/>
<glyph d="M84 504l-6 119c51 36 105 53 169 53c156 0 225 -89 225 -191c0 -92 -56 -171 -151 -260l-120 -113h263v-112h-421v103l177 180c72 74 110 131 110 184c0 66 -37 97 -108 97c-43 0 -93 -19 -138 -60z" glyph-name="two" unicode="2"/>
<glyph d="M75 520l-5 116c48 27 105 40 162 40c154 0 226 -68 226 -167c0 -88 -82 -146 -173 -157c123 -11 178 -81 178 -168c0 -118 -105 -198 -269 -198c-54 0 -110 10 -156 33l10 115c51 -24 103 -36 153 -36c74 0 120 32 120 85c0 68 -56 97 -181 97v104c122 0 176 44 176 101 c0 49 -37 79 -107 79c-45 0 -98 -17 -134 -44z" glyph-name="three" unicode="3"/>
<glyph d="M420 263h89v-112h-89v-150h-132v150h-264v104l218 407h178v-399zM160 263h130v134c0 57 1 99 6 149z" glyph-name="four" unicode="4"/>
<glyph d="M458 546h-231l-9 -134l18 -1c155 -9 236 -74 236 -204c0 -137 -116 -217 -255 -217c-61 0 -114 9 -164 35l8 116c54 -30 110 -39 160 -39c76 0 119 40 119 99c0 73 -46 105 -154 107l-98 2l24 348h346v-112z" glyph-name="five" unicode="5"/>
<glyph d="M436 672l9 -115c-160 -4 -267 -75 -281 -215c32 46 75 61 129 61c120 0 192 -95 192 -195c0 -143 -117 -218 -226 -218c-116 0 -225 84 -225 260c0 312 190 418 402 422zM256 296c-55 0 -92 -35 -92 -94c0 -65 46 -102 97 -102c56 0 92 44 92 97c0 55 -37 99 -97 99z" glyph-name="six" unicode="6"/>
<glyph d="M475 573l-262 -572h-133l249 545h-278v112h424v-85z" glyph-name="seven" unicode="7"/>
<glyph d="M269 672c128 0 210 -72 210 -171c0 -74 -39 -131 -109 -160c88 -51 115 -102 115 -173c0 -111 -93 -178 -228 -178c-138 0 -220 67 -220 168c0 80 42 138 123 174c-67 31 -104 87 -104 161c0 106 88 179 213 179zM269 560c-45 0 -71 -33 -71 -76c0 -47 21 -81 72 -101 c50 20 67 54 67 99s-24 78 -68 78zM255 290c-55 -38 -76 -64 -76 -113c0 -43 36 -75 81 -75c53 0 83 37 83 75c0 49 -16 79 -88 113z" glyph-name="eight" unicode="8"/>
<glyph d="M81 -10l-9 115c160 4 267 75 281 215c-32 -46 -75 -61 -129 -61c-120 0 -192 95 -192 195c0 143 117 218 226 218c116 0 225 -84 225 -260c0 -312 -190 -418 -402 -422zM256 562c-56 0 -92 -44 -92 -97c0 -55 37 -99 97 -99c55 0 92 35 92 94c0 65 -46 102 -97 102z" glyph-name="nine" unicode="9"/>
<glyph d="M264 500l140 70l35 -109l-154 -26l110 -112l-93 -67l-72 139l-72 -139l-93 67l110 112l-154 26l35 109l140 -70l-23 155h114z" glyph-name="asterisk" horiz-adv-x="460" unicode="*"/>
<glyph d="M429 -97h-101l-343 846h102z" glyph-name="backslash" horiz-adv-x="414" unicode="\"/>
<glyph d="M150 488c42 0 76 -34 76 -76s-34 -76 -76 -76s-76 34 -76 76s34 76 76 76zM150 142c42 0 76 -34 76 -76s-34 -76 -76 -76s-76 34 -76 76s34 76 76 76z" glyph-name="colon" horiz-adv-x="309" unicode=":"/>
<glyph d="M98 -142l-90 -5l75 279h128z" glyph-name="comma" horiz-adv-x="309" unicode=","/>
<glyph d="M150 142c42 0 76 -34 76 -76s-34 -76 -76 -76s-76 34 -76 76s34 76 76 76zM410 142c42 0 76 -34 76 -76s-34 -76 -76 -76s-76 34 -76 76s34 76 76 76zM670 142c42 0 76 -34 76 -76s-34 -76 -76 -76s-76 34 -76 76s34 76 76 76z" glyph-name="ellipsis" horiz-adv-x="829" unicode="…"/>
<glyph d="M176 200h-100l-12 488h124zM126 142c42 0 76 -34 76 -76s-34 -76 -76 -76s-76 34 -76 76s34 76 76 76z" glyph-name="exclam" horiz-adv-x="252" unicode="!"/>
<glyph d="M126 336c-42 0 -76 34 -76 76s34 76 76 76s76 -34 76 -76s-34 -76 -76 -76zM176 278l12 -488h-124l12 488h100z" glyph-name="exclamdown" horiz-adv-x="252" unicode="¡"/>
<glyph d="M401 398l-26 -134h74v-84h-90l-38 -200h-94l39 200h-61l-38 -200h-94l39 200h-72v84h88l27 134h-80v84h96l39 200h92l-38 -200h61l39 200h91l-38 -200h67v-84h-83zM282 262l27 138h-61l-27 -138h61z" glyph-name="numbersign" unicode="#"/>
<glyph d="M150 142c42 0 76 -34 76 -76s-34 -76 -76 -76s-76 34 -76 76s34 76 76 76z" glyph-name="period" horiz-adv-x="309" unicode="."/>
<glyph d="M50 537l-4 113c40 29 102 48 168 48c119 0 204 -69 204 -167c0 -70 -30 -116 -101 -201c-38 -46 -57 -82 -60 -130h-133c2 58 17 97 67 159c69 86 83 115 83 158c0 39 -35 69 -93 69c-50 0 -96 -19 -131 -49zM191 142c42 0 76 -34 76 -76s-34 -76 -76 -76s-76 34 -76 76 s34 76 76 76z" glyph-name="question" horiz-adv-x="446" unicode="?"/>
<glyph d="M255 336c-42 0 -76 34 -76 76s34 76 76 76s76 -34 76 -76s-34 -76 -76 -76zM396 -59l4 -113c-40 -29 -102 -48 -168 -48c-119 0 -204 69 -204 167c0 70 30 116 101 201c38 46 57 82 60 130h133c-2 -58 -17 -97 -67 -159c-69 -86 -83 -115 -83 -158c0 -39 35 -69 93 -69 c50 0 96 19 131 49z" glyph-name="questiondown" horiz-adv-x="418" unicode="¿"/>
<glyph d="M148 446h-85l-8 289h111zM328 446h-85l-8 289h111z" glyph-name="quotedbl" horiz-adv-x="405" unicode='"'/>
<glyph d="M148 446h-85l-8 289h111z" glyph-name="quotesingle" horiz-adv-x="225" unicode="'"/>
<glyph d="M150 488c42 0 76 -34 76 -76s-34 -76 -76 -76c-43 0 -76 34 -76 76s34 76 76 76zM98 -142l-90 -5l75 279h128z" glyph-name="semicolon" horiz-adv-x="309" unicode=";"/>
<glyph d="M86 -97h-101l342 846h102z" glyph-name="slash" horiz-adv-x="414" unicode="/"/>
<glyph d="M500 -133h-500v84h500v-84z" glyph-name="underscore" horiz-adv-x="500" unicode="_"/>
<glyph d="M336 754v-84c-59 0 -100 -23 -92 -98l15 -149c6 -55 -20 -86 -65 -94c49 -9 70 -42 65 -100l-14 -149c-7 -75 32 -98 91 -98v-84c-117 0 -200 33 -187 168l13 131c7 66 -14 85 -71 85v88c57 0 78 19 71 85l-13 131c-13 135 70 168 187 168z" glyph-name="braceleft" horiz-adv-x="403" unicode="{"/>
<glyph d="M67 670v84c117 0 200 -33 187 -168l-13 -131c-7 -66 14 -85 71 -85v-88c-57 0 -78 -19 -71 -85l13 -131c13 -135 -70 -168 -187 -168v84c59 0 100 23 92 98l-15 149c-6 55 20 86 65 94c-49 9 -70 42 -65 100l14 149c7 75 -32 98 -91 98z" glyph-name="braceright" horiz-adv-x="403" unicode="}"/>
<glyph d="M356 665h-152v-678h152v-84h-246v846h246v-84z" glyph-name="bracketleft" horiz-adv-x="423" unicode="["/>
<glyph d="M313 -97h-246v84h152v678h-152v84h246v-846z" glyph-name="bracketright" horiz-adv-x="423" unicode="]"/>
<glyph d="M248 755l62 -44c-74 -107 -124 -223 -124 -385s50 -278 124 -385l-62 -44c-87 90 -166 242 -166 429s79 339 166 429z" glyph-name="parenleft" horiz-adv-x="367" unicode="("/>
<glyph d="M57 711l62 44c87 -90 166 -242 166 -429s-79 -339 -166 -429l-62 44c74 107 124 223 124 385s-50 278 -124 385z" glyph-name="parenright" horiz-adv-x="366" unicode=")"/>
<glyph d="M944 228h-888v84h888v-84z" glyph-name="emdash" horiz-adv-x="1000" unicode="—"/>
<glyph d="M444 228h-388v84h388v-84z" glyph-name="endash" horiz-adv-x="500" unicode="–"/>
<glyph d="M292 228h-236v84h236v-84z" glyph-name="hyphen" horiz-adv-x="348" unicode="-"/>
<glyph d="M181 252l119 -169h-115l-119 169l119 169h115zM381 252l119 -169h-115l-119 169l119 169h115z" glyph-name="guillemotleft" horiz-adv-x="546" unicode="«"/>
<glyph d="M280 252l-119 -169h-115l119 169l-119 169h115zM480 252l-119 -169h-115l119 169l-119 169h115z" glyph-name="guillemotright" horiz-adv-x="546" unicode="»"/>
<glyph d="M181 252l119 -169h-115l-119 169l119 169h115z" glyph-name="guilsinglleft" horiz-adv-x="346" unicode="‹"/>
<glyph d="M280 252l-119 -169h-115l119 169l-119 169h115z" glyph-name="guilsinglright" horiz-adv-x="346" unicode="›"/>
<glyph d="M98 -142l-90 -5l75 279h128zM288 -142l-90 -5l75 279h128z" glyph-name="quotedblbase" horiz-adv-x="499" unicode="„"/>
<glyph d="M148 451l-124 -5l123 284l86 5zM328 451l-124 -5l123 284l86 5z" glyph-name="quotedblleft" horiz-adv-x="428" unicode="“"/>
<glyph d="M105 451l-86 -5l85 284l124 5zM285 451l-86 -5l85 284l124 5z" glyph-name="quotedblright" horiz-adv-x="434" unicode="”"/>
<glyph d="M148 451l-124 -5l123 284l86 5z" glyph-name="quoteleft" horiz-adv-x="248" unicode="‘"/>
<glyph d="M105 451l-86 -5l85 284l124 5z" glyph-name="quoteright" horiz-adv-x="254" unicode="’"/>
<glyph glyph-name="space" horiz-adv-x="186" unicode=" "/>
<glyph d="M438 594l-14 -110c-32 25 -79 41 -131 41s-85 -22 -85 -61c0 -36 27 -60 104 -83c97 -29 139 -80 139 -161c0 -88 -65 -152 -151 -178v-88h-94v76c-51 1 -104 9 -156 28l15 111c56 -23 105 -32 152 -32c56 0 95 28 95 67c0 37 -22 61 -94 84c-94 30 -149 79 -149 169 c0 92 63 146 142 166v85h94v-77c57 -3 106 -18 133 -37z" glyph-name="dollar" unicode="$"/>
<glyph d="M452 285h-164c2 -16 3 -32 3 -49c0 -67 -35 -105 -79 -123h275v-112h-437v104c47 11 99 61 99 129c0 13 -1 29 -4 51h-100v84h88c-5 29 -9 62 -9 87c0 148 112 216 236 216c53 0 100 -11 127 -26l-5 -112c-32 17 -69 26 -118 26c-51 0 -98 -39 -98 -101 c0 -26 1 -51 8 -90h178v-84z" glyph-name="sterling" unicode="£"/>
<glyph d="M361 374h80v-78h-117v-55h117v-84h-116v-157h-132v157h-117v84h117v55h-117v78h79l-141 281h140l108 -275l106 275h140z" glyph-name="yen" unicode="¥"/>
<glyph d="M443 349h85c0 -134 -47 -180 -129 -180c-36 0 -73 14 -129 48c-61 37 -80 42 -100 42c-32 0 -47 -27 -47 -92h-85c0 134 50 180 129 180c36 0 67 -9 129 -48c51 -32 80 -42 100 -42c32 0 47 27 47 92z" glyph-name="asciitilde" horiz-adv-x="566" unicode="~"/>
<glyph d="M522 329h-466v84h466v-84zM522 127h-466v84h466v-84z" glyph-name="equal" horiz-adv-x="578" unicode="="/>
<glyph d="M467 304v-108l-401 -190v108l308 135l-308 136v110z" glyph-name="greater" horiz-adv-x="555" unicode=">"/>
<glyph d="M467 387l-308 -135l308 -136v-110l-401 191v108l401 190v-108z" glyph-name="less" horiz-adv-x="555" unicode="<"/>
<glyph d="M298 -20h-104l344 702h106zM203 672c89 0 163 -62 163 -176c0 -113 -74 -176 -163 -176c-90 0 -163 63 -163 176c0 114 73 176 163 176zM203 588c-41 0 -59 -42 -59 -92s18 -92 59 -92s59 42 59 92s-18 92 -59 92zM635 342c89 0 163 -62 163 -176 c0 -113 -74 -176 -163 -176c-90 0 -163 63 -163 176c0 114 73 176 163 176zM635 258c-41 0 -59 -42 -59 -92s18 -92 59 -92s59 42 59 92s-18 92 -59 92z" glyph-name="percent" horiz-adv-x="838" unicode="%"/>
<glyph d="M318 312h175v-84h-175v-198h-94v198h-175v84h175v198h94v-198z" glyph-name="plus" horiz-adv-x="542" unicode="+"/>
<glyph d="M489 0l-39 45c-53 -36 -118 -55 -190 -55c-117 0 -216 76 -216 194c0 83 48 137 127 187c-43 54 -60 94 -60 145c0 94 67 182 185 182c110 0 179 -72 179 -155c0 -78 -30 -125 -134 -191l117 -130c22 39 37 82 43 124h120c-11 -84 -39 -157 -81 -215l119 -131h-170z M294 590c-30 0 -51 -27 -51 -66c0 -34 8 -61 32 -95c56 35 65 68 65 106c0 30 -15 55 -46 55zM376 131l-139 161c-40 -28 -51 -53 -51 -94c0 -52 36 -96 99 -96c33 0 63 11 91 29z" glyph-name="ampersand" horiz-adv-x="667" unicode="&"/>
<glyph d="M462 225h-104l-104 246l-107 -246h-103l151 316h119z" glyph-name="asciicircum" horiz-adv-x="506" unicode="^"/>
<glyph d="M605 3l9 -81c-71 -41 -140 -58 -224 -58c-183 0 -342 120 -342 331c0 253 196 414 410 414c195 0 320 -151 320 -315c0 -168 -96 -243 -191 -243c-52 0 -99 32 -107 77c-28 -56 -69 -82 -122 -82c-71 0 -128 54 -128 145c0 143 96 233 234 233c54 0 106 -15 135 -34 l-27 -170c-9 -58 6 -80 40 -80c43 0 78 56 78 146c0 147 -77 242 -245 242c-158 0 -309 -136 -309 -316c0 -172 105 -267 265 -267c74 0 136 18 204 58zM466 239l16 84c-13 3 -27 4 -46 4c-47 0 -92 -44 -92 -125c0 -43 22 -59 48 -59c39 0 64 41 74 96z" glyph-name="at" horiz-adv-x="829" unicode="@"/>
<glyph d="M194 -235h-94v1000h94v-1000z" glyph-name="bar" horiz-adv-x="294" unicode="|"/>
<glyph d="M45 440h27c30 167 162 232 304 232c53 0 101 -11 125 -26l-6 -115c-32 23 -72 29 -117 29c-105 0 -142 -44 -164 -120h205l-8 -84h-208c-2 -15 -2 -49 0 -68h201l-7 -84h-185c15 -77 70 -102 156 -102c47 0 92 13 122 32l7 -112c-40 -23 -93 -32 -151 -32 c-142 0 -244 61 -271 214h-50l6 84h33c-2 18 -2 51 0 68h-26z" glyph-name="Euro" unicode="€"/>
<glyph d="M243 540l-97 -7l69 133l140 8z" glyph-name="acute" horiz-adv-x="500" unicode="´"/>
<glyph d="M129 663h73c2 -39 21 -59 48 -59s46 20 48 59h73c0 -81 -44 -128 -121 -128c-78 0 -121 47 -121 128z" glyph-name="breve" horiz-adv-x="500" unicode="˘"/>
<glyph d="M299 1l-20 -35c48 -5 70 -36 70 -75c0 -62 -55 -92 -128 -92c-25 0 -54 5 -76 17l27 58c16 -7 30 -9 50 -9c29 0 43 12 43 26c0 20 -19 30 -75 30l37 82z" glyph-name="cedilla" horiz-adv-x="500" unicode="¸"/>
<glyph d="M383 534h-99l-34 78l-34 -78h-98l79 135h107z" glyph-name="circumflex" horiz-adv-x="500" unicode="ˆ"/>
<glyph d="M155 655c35 0 63 -28 63 -63s-28 -63 -63 -63s-63 28 -63 63s28 63 63 63zM345 655c35 0 63 -28 63 -63s-28 -63 -63 -63s-63 28 -63 63s28 63 63 63z" glyph-name="dieresis" horiz-adv-x="500" unicode="¨"/>
<glyph d="M286 666l69 -133l-97 7l-112 134z" glyph-name="grave" horiz-adv-x="500" unicode="`"/>
<glyph d="M250 686c49 0 95 -29 95 -84s-46 -84 -95 -84s-95 29 -95 84s46 84 95 84zM250 638c-17 0 -32 -15 -32 -36c0 -22 15 -36 32 -36s32 14 32 36c0 21 -15 36 -32 36z" glyph-name="ring" horiz-adv-x="500" unicode="˚"/>
<glyph d="M384 658v-23c0 -61 -33 -86 -77 -86c-17 0 -39 7 -63 16c-21 8 -34 11 -43 11c-14 0 -23 -15 -23 -28h-62v23c0 61 33 86 77 86c19 0 38 -7 62 -16c20 -8 33 -11 42 -11c14 0 25 15 25 28h62z" glyph-name="tilde" horiz-adv-x="500" unicode="˜"/>
</font>
</defs>
</svg>
