<?xml version="1.0" standalone="no"?>
<!DOCTYPE svg PUBLIC "-//W3C//DTD SVG 1.1//EN" "http://www.w3.org/Graphics/SVG/1.1/DTD/svg11.dtd" >
<svg>
<metadata>
Created by FontForge 20120731 at Fri Aug 30 14:53:07 2019
 By www
copyright missing
</metadata>
<defs>
<font id="Vegur-Light" horiz-adv-x="456" >
  <font-face 
    font-family="Vegur"
    font-weight="300"
    font-stretch="normal"
    units-per-em="1000"
    panose-1="0 0 4 0 0 0 0 0 0 0"
    ascent="765"
    descent="-235"
    x-height="470"
    cap-height="688"
    bbox="-55 -235 944 878"
    underline-thickness="50"
    underline-position="-50"
    unicode-range="U+0020-FB02"
  />
<missing-glyph horiz-adv-x="500" 
d="M0 0v700h500v-700h-500zM250 395l170 255h-340zM280 350l170 -255v510zM80 50h340l-170 255zM50 605v-510l170 255z" />
    <glyph glyph-name="fi" unicode="fi" horiz-adv-x="470" 
d="M386 470v-470h-34v442h-214v-442h-34v442h-67v28h67v37c0 177 110 238 204 238c25 0 54 -4 70 -15l-3 -30c-17 10 -43 14 -69 14c-76 0 -168 -56 -168 -198v-46h248z" />
    <glyph glyph-name="fl" unicode="fl" horiz-adv-x="470" 
d="M352 0v709c-14 3 -30 5 -45 5c-77 0 -169 -52 -169 -190v-54h121v-28h-121v-442h-34v442h-67v28h67v43c0 173 113 232 208 232c25 0 54 -4 74 -11v-734h-34z" />
    <glyph glyph-name=".notdef" horiz-adv-x="500" 
d="M0 0v700h500v-700h-500zM250 395l170 255h-340zM280 350l170 -255v510zM80 50h340l-170 255zM50 605v-510l170 255z" />
    <glyph glyph-name="A" unicode="A" horiz-adv-x="554" 
d="M413 247h-273l-83 -247h-35l234 688h44l232 -688h-36zM403 279l-126 375l-126 -375h252z" />
    <glyph glyph-name="Aacute" unicode="&#xc1;" horiz-adv-x="554" 
d="M288 739l-31 -2l85 117l44 3zM140 247l-83 -247h-35l234 688h44l232 -688h-36l-83 247h-273zM277 654l-126 -375h252z" />
    <glyph glyph-name="Abreve" unicode="&#x102;" horiz-adv-x="554" 
d="M182 845h27c4 -54 31 -83 69 -83s65 29 69 83h27c-4 -62 -35 -109 -96 -109c-62 0 -92 46 -96 109zM140 247l-83 -247h-35l234 688h44l232 -688h-36l-83 247h-273zM277 654l-126 -375h252z" />
    <glyph glyph-name="Acircumflex" unicode="&#xc2;" horiz-adv-x="554" 
d="M364 736h-34l-52 91l-52 -91h-33l71 112h29zM140 247l-83 -247h-35l234 688h44l232 -688h-36l-83 247h-273zM277 654l-126 -375h252z" />
    <glyph glyph-name="Adieresis" unicode="&#xc4;" horiz-adv-x="554" 
d="M218 821c15 0 27 -12 27 -27s-12 -27 -27 -27s-27 12 -27 27s12 27 27 27zM338 821c15 0 27 -12 27 -27s-12 -27 -27 -27s-27 12 -27 27s12 27 27 27zM140 247l-83 -247h-35l234 688h44l232 -688h-36l-83 247h-273zM277 654l-126 -375h252z" />
    <glyph glyph-name="Agrave" unicode="&#xc0;" horiz-adv-x="554" 
d="M220 855l85 -117l-31 2l-98 118zM140 247l-83 -247h-35l234 688h44l232 -688h-36l-83 247h-273zM277 654l-126 -375h252z" />
    <glyph glyph-name="Aring" unicode="&#xc5;" horiz-adv-x="554" 
d="M278 867c36 0 65 -27 65 -64s-29 -64 -65 -64s-65 27 -65 64s29 64 65 64zM278 843c-21 0 -37 -14 -37 -40s16 -40 37 -40s37 14 37 40s-16 40 -37 40zM140 247l-83 -247h-35l234 688h44l232 -688h-36l-83 247h-273zM277 654l-126 -375h252z" />
    <glyph glyph-name="Atilde" unicode="&#xc3;" horiz-adv-x="554" 
d="M372 820v-7c0 -28 -18 -43 -42 -43c-19 0 -38 5 -60 13c-19 7 -34 10 -43 10c-14 0 -20 -10 -20 -23h-23v7c0 28 18 43 42 43c19 0 38 -5 60 -13c18 -7 34 -10 43 -10c14 0 20 10 20 23h23zM140 247l-83 -247h-35l234 688h44l232 -688h-36l-83 247h-273zM277 654
l-126 -375h252z" />
    <glyph glyph-name="AE" unicode="&#xc6;" horiz-adv-x="829" 
d="M790 32v-32h-308l-29 247h-257l-127 -247h-37l354 684h360v-32h-307l34 -289h261v-32h-257l36 -299h277zM449 279l-44 376l-193 -376h237z" />
    <glyph glyph-name="B" unicode="B" horiz-adv-x="492" 
d="M88 0v687c42 8 74 11 102 11c163 0 242 -71 242 -173c0 -106 -92 -166 -177 -177c108 -12 181 -78 181 -171c0 -118 -103 -187 -252 -187c-29 0 -64 3 -96 10zM122 356h45c108 0 228 55 228 161c0 95 -66 149 -203 149c-22 0 -44 -2 -70 -6v-304zM122 324v-296
c26 -4 55 -6 76 -6c111 0 200 57 200 147c0 100 -76 155 -219 155h-57z" />
    <glyph glyph-name="C" unicode="C" horiz-adv-x="595" 
d="M544 65l3 -33c-53 -29 -106 -42 -180 -42c-164 0 -306 124 -306 349c0 215 148 359 324 359c77 0 138 -19 171 -42l-4 -33c-50 29 -95 43 -166 43c-154 0 -289 -128 -289 -319c0 -219 134 -325 281 -325c69 0 113 14 166 43z" />
    <glyph glyph-name="Ccedilla" unicode="&#xc7;" horiz-adv-x="595" 
d="M556 656l-4 -33c-50 29 -95 43 -166 43c-154 0 -289 -128 -289 -319c0 -219 134 -325 281 -325c69 0 113 14 166 43l3 -33c-49 -27 -98 -40 -163 -42l-14 -23c43 -5 62 -30 62 -60c0 -46 -39 -68 -86 -68c-16 0 -35 4 -53 13l5 24c19 -9 34 -12 51 -12c30 0 49 18 49 40
c0 28 -17 41 -73 41l27 45c-158 8 -291 131 -291 349c0 215 148 359 324 359c77 0 138 -19 171 -42z" />
    <glyph glyph-name="D" unicode="D" horiz-adv-x="646" 
d="M88 1v684c54 11 93 13 137 13c243 0 360 -158 360 -339c0 -234 -166 -369 -381 -369c-35 0 -73 3 -116 11zM122 657v-629c31 -4 61 -6 88 -6c187 0 339 133 339 324c0 196 -122 320 -327 320c-34 0 -72 -3 -100 -9z" />
    <glyph glyph-name="E" unicode="E" horiz-adv-x="442" 
d="M392 652h-270v-289h238v-32h-238v-299h274v-32h-308v684h304v-32z" />
    <glyph glyph-name="Eacute" unicode="&#xc9;" horiz-adv-x="442" 
d="M250 739l-31 -2l85 117l44 3zM122 652v-289h238v-32h-238v-299h274v-32h-308v684h304v-32h-270z" />
    <glyph glyph-name="Ecircumflex" unicode="&#xca;" horiz-adv-x="442" 
d="M326 736h-34l-52 91l-52 -91h-33l71 112h29zM122 652v-289h238v-32h-238v-299h274v-32h-308v684h304v-32h-270z" />
    <glyph glyph-name="Edieresis" unicode="&#xcb;" horiz-adv-x="442" 
d="M180 821c15 0 27 -12 27 -27s-12 -27 -27 -27s-27 12 -27 27s12 27 27 27zM300 821c15 0 27 -12 27 -27s-12 -27 -27 -27s-27 12 -27 27s12 27 27 27zM392 652h-270v-289h238v-32h-238v-299h274v-32h-308v684h304v-32z" />
    <glyph glyph-name="Egrave" unicode="&#xc8;" horiz-adv-x="442" 
d="M182 855l85 -117l-31 2l-98 118zM392 652h-270v-289h238v-32h-238v-299h274v-32h-308v684h304v-32z" />
    <glyph glyph-name="F" unicode="F" horiz-adv-x="413" 
d="M392 652h-270v-323h238v-32h-238v-297h-34v684h304v-32z" />
    <glyph glyph-name="G" unicode="G" horiz-adv-x="614" 
d="M552 311v-286c-47 -21 -109 -35 -173 -35c-192 0 -318 132 -318 349c0 221 151 359 323 359c77 0 139 -17 172 -40l-4 -35c-48 30 -97 43 -165 43c-150 0 -290 -122 -290 -319c0 -247 149 -325 291 -325c51 0 99 10 130 23v234h-147v32h181z" />
    <glyph glyph-name="Gbreve" unicode="&#x11e;" horiz-adv-x="614" 
d="M259 845h27c4 -54 31 -83 69 -83s65 29 69 83h27c-4 -62 -35 -109 -96 -109c-62 0 -92 46 -96 109zM552 311v-286c-47 -21 -109 -35 -173 -35c-192 0 -318 132 -318 349c0 221 151 359 323 359c77 0 139 -17 172 -40l-4 -35c-48 30 -97 43 -165 43
c-150 0 -290 -122 -290 -319c0 -247 149 -325 291 -325c51 0 99 10 130 23v234h-147v32h181z" />
    <glyph glyph-name="H" unicode="H" horiz-adv-x="612" 
d="M528 0h-34v331h-372v-331h-34v688h34v-325h372v325h34v-688z" />
    <glyph glyph-name="I" unicode="I" horiz-adv-x="206" 
d="M122 0h-34v688h34v-688z" />
    <glyph glyph-name="IJ" unicode="&#x132;" horiz-adv-x="444" 
d="M88 0v688h34v-688h-34zM364 688v-543c0 -191 -37 -299 -189 -359l-13 28c128 54 168 132 168 329v545h34z" />
    <glyph glyph-name="Iacute" unicode="&#xcd;" horiz-adv-x="206" 
d="M115 739l-31 -2l85 117l44 3zM88 0v688h34v-688h-34z" />
    <glyph glyph-name="Icircumflex" unicode="&#xce;" horiz-adv-x="206" 
d="M191 736h-34l-52 91l-52 -91h-33l71 112h29zM88 0v688h34v-688h-34z" />
    <glyph glyph-name="Idieresis" unicode="&#xcf;" horiz-adv-x="206" 
d="M45 821c15 0 27 -12 27 -27s-12 -27 -27 -27s-27 12 -27 27s12 27 27 27zM165 821c15 0 27 -12 27 -27s-12 -27 -27 -27s-27 12 -27 27s12 27 27 27zM88 0v688h34v-688h-34z" />
    <glyph glyph-name="Idotaccent" unicode="&#x130;" horiz-adv-x="210" 
d="M105 821c15 0 27 -12 27 -27s-12 -27 -27 -27s-27 12 -27 27s12 27 27 27zM88 0v688h34v-688h-34z" />
    <glyph glyph-name="Igrave" unicode="&#xcc;" horiz-adv-x="206" 
d="M47 855l85 -117l-31 2l-98 118zM88 0v688h34v-688h-34z" />
    <glyph glyph-name="J" unicode="J" horiz-adv-x="238" 
d="M158 688v-543c0 -191 -37 -299 -189 -359l-13 28c128 54 168 132 168 329v545h34z" />
    <glyph glyph-name="K" unicode="K" horiz-adv-x="509" 
d="M207 349l292 -349h-44l-273 327l-60 -67v-260h-34v688h34v-386l344 386h44z" />
    <glyph glyph-name="L" unicode="L" horiz-adv-x="431" 
d="M122 32h277v-32h-311v688h34v-656z" />
    <glyph glyph-name="M" unicode="M" horiz-adv-x="782" 
d="M147 688l190 -501c19 -49 37 -99 53 -149c17 50 35 100 54 149l192 501h55l11 -688h-36l-7 478c-1 58 -1 115 0 182c-24 -67 -46 -124 -68 -182l-181 -470h-45l-176 470c-22 58 -43 115 -68 190c2 -75 2 -132 1 -190l-6 -478h-34l11 688h54z" />
    <glyph glyph-name="N" unicode="N" horiz-adv-x="604" 
d="M524 0h-39l-297 504c-32 54 -46 79 -76 141c3 -60 3 -87 3 -147v-498h-33v688h39l290 -495c32 -55 54 -95 83 -152c-2 60 -3 102 -3 157v490h33v-688z" />
    <glyph glyph-name="Ntilde" unicode="&#xd1;" horiz-adv-x="604" 
d="M397 820v-7c0 -28 -18 -43 -42 -43c-19 0 -38 5 -60 13c-19 7 -34 10 -43 10c-14 0 -20 -10 -20 -23h-23v7c0 28 18 43 42 43c19 0 38 -5 60 -13c18 -7 34 -10 43 -10c14 0 20 10 20 23h23zM485 0l-297 504c-32 54 -46 79 -76 141c3 -60 3 -87 3 -147v-498h-33v688h39
l290 -495c32 -55 54 -95 83 -152c-2 60 -3 102 -3 157v490h33v-688h-39z" />
    <glyph glyph-name="O" unicode="O" horiz-adv-x="712" 
d="M356 698c170 0 295 -141 295 -354s-125 -354 -295 -354s-295 141 -295 354s125 354 295 354zM356 666c-151 0 -259 -132 -259 -322s108 -322 259 -322s259 132 259 322s-108 322 -259 322z" />
    <glyph glyph-name="Oacute" unicode="&#xd3;" horiz-adv-x="712" 
d="M366 739l-31 -2l85 117l44 3zM356 698c170 0 295 -141 295 -354s-125 -354 -295 -354s-295 141 -295 354s125 354 295 354zM356 666c-151 0 -259 -132 -259 -322s108 -322 259 -322s259 132 259 322s-108 322 -259 322z" />
    <glyph glyph-name="Ocircumflex" unicode="&#xd4;" horiz-adv-x="712" 
d="M442 736h-34l-52 91l-52 -91h-33l71 112h29zM356 698c170 0 295 -141 295 -354s-125 -354 -295 -354s-295 141 -295 354s125 354 295 354zM356 666c-151 0 -259 -132 -259 -322s108 -322 259 -322s259 132 259 322s-108 322 -259 322z" />
    <glyph glyph-name="Odieresis" unicode="&#xd6;" horiz-adv-x="712" 
d="M296 821c15 0 27 -12 27 -27s-12 -27 -27 -27s-27 12 -27 27s12 27 27 27zM416 821c15 0 27 -12 27 -27s-12 -27 -27 -27s-27 12 -27 27s12 27 27 27zM356 698c170 0 295 -141 295 -354s-125 -354 -295 -354s-295 141 -295 354s125 354 295 354zM356 666
c-151 0 -259 -132 -259 -322s108 -322 259 -322s259 132 259 322s-108 322 -259 322z" />
    <glyph glyph-name="Ograve" unicode="&#xd2;" horiz-adv-x="712" 
d="M298 855l85 -117l-31 2l-98 118zM356 698c170 0 295 -141 295 -354s-125 -354 -295 -354s-295 141 -295 354s125 354 295 354zM356 666c-151 0 -259 -132 -259 -322s108 -322 259 -322s259 132 259 322s-108 322 -259 322z" />
    <glyph glyph-name="Oslash" unicode="&#xd8;" horiz-adv-x="712" 
d="M608 664l-45 -58c55 -62 88 -153 88 -262c0 -213 -125 -354 -295 -354c-80 0 -149 31 -201 86l-55 -72l-26 20l59 77c-45 61 -72 144 -72 243c0 213 125 354 295 354c71 0 134 -25 184 -69l42 55zM156 131l363 471c-44 41 -100 64 -163 64c-151 0 -259 -132 -259 -322
c0 -85 22 -158 59 -213zM541 577l-364 -473c45 -52 107 -82 179 -82c151 0 259 132 259 322c0 96 -27 176 -74 233z" />
    <glyph glyph-name="Otilde" unicode="&#xd5;" horiz-adv-x="712" 
d="M450 820v-7c0 -28 -18 -43 -42 -43c-19 0 -38 5 -60 13c-19 7 -34 10 -43 10c-14 0 -20 -10 -20 -23h-23v7c0 28 18 43 42 43c19 0 38 -5 60 -13c18 -7 34 -10 43 -10c14 0 20 10 20 23h23zM356 698c170 0 295 -141 295 -354s-125 -354 -295 -354s-295 141 -295 354
s125 354 295 354zM356 666c-151 0 -259 -132 -259 -322s108 -322 259 -322s259 132 259 322s-108 322 -259 322z" />
    <glyph glyph-name="OE" unicode="&#x152;" horiz-adv-x="969" 
d="M923 32v-32h-308v181c-43 -119 -135 -191 -261 -191c-170 0 -293 141 -293 354s123 354 293 354c126 0 218 -72 261 -191v177h304v-32h-270v-289h238v-32h-238v-299h274zM356 22c151 0 259 132 259 322s-108 322 -259 322s-259 -132 -259 -322s108 -322 259 -322z" />
    <glyph glyph-name="P" unicode="P" horiz-adv-x="457" 
d="M88 0v686c39 9 75 12 108 12c167 0 241 -83 241 -188c0 -135 -123 -210 -258 -210c-18 0 -39 1 -57 3v-303h-34zM122 659v-324c13 -2 33 -4 45 -4c141 0 232 73 232 174c0 96 -57 161 -201 161c-22 0 -47 -2 -76 -7z" />
    <glyph glyph-name="Q" unicode="Q" horiz-adv-x="712" 
d="M520 -204l-164 194c-170 0 -295 141 -295 354s125 354 295 354s295 -141 295 -354c0 -195 -106 -327 -254 -349l-3 -1l155 -178zM97 344c0 -190 108 -323 259 -323s259 133 259 323s-108 322 -259 322s-259 -132 -259 -322z" />
    <glyph glyph-name="R" unicode="R" horiz-adv-x="485" 
d="M88 0v686c39 9 75 12 108 12c167 0 245 -78 245 -186c0 -106 -93 -175 -185 -189c81 -10 117 -57 135 -134c14 -61 36 -142 51 -189h-39c-15 54 -33 123 -44 173c-19 83 -50 130 -185 130h-52v-303h-34zM122 334h43c125 0 238 62 238 176c0 96 -61 156 -205 156
c-22 0 -47 -2 -76 -7v-325z" />
    <glyph glyph-name="S" unicode="S" horiz-adv-x="455" 
d="M45 22l6 33c44 -22 91 -33 134 -33c98 0 169 64 169 151c0 74 -40 118 -136 153c-89 32 -152 90 -152 185c0 117 85 187 187 187c55 0 100 -16 125 -32l-6 -34c-30 21 -74 34 -120 34c-85 0 -150 -60 -150 -148c0 -81 41 -127 134 -162c98 -37 156 -85 156 -179
c0 -104 -87 -187 -210 -187c-46 0 -93 10 -137 32z" />
    <glyph glyph-name="Scedilla" unicode="&#x15e;" horiz-adv-x="455" 
d="M378 666l-6 -34c-30 21 -74 34 -120 34c-85 0 -150 -60 -150 -148c0 -81 41 -127 134 -162c98 -37 156 -85 156 -179c0 -87 -61 -160 -154 -181l-17 -29c43 -5 62 -30 62 -60c0 -46 -39 -68 -86 -68c-16 0 -35 4 -53 13l5 24c19 -9 34 -12 51 -12c30 0 49 18 49 40
c0 28 -17 41 -73 41l27 46l-21 -1c-46 0 -93 10 -137 32l6 33c44 -22 91 -33 134 -33c98 0 169 64 169 151c0 74 -40 118 -136 153c-89 32 -152 90 -152 185c0 117 85 187 187 187c55 0 100 -16 125 -32z" />
    <glyph glyph-name="T" unicode="T" horiz-adv-x="458" 
d="M449 652h-202v-652h-34v652h-202v32h438v-32z" />
    <glyph glyph-name="U" unicode="U" horiz-adv-x="614" 
d="M538 688v-455c0 -158 -85 -247 -232 -247c-144 0 -228 95 -228 237v465h34v-453c0 -141 69 -217 200 -217c107 0 192 60 192 207v463h34z" />
    <glyph glyph-name="Uacute" unicode="&#xda;" horiz-adv-x="614" 
d="M318 749l-31 -2l85 117l44 3zM538 688v-455c0 -158 -85 -247 -232 -247c-144 0 -228 95 -228 237v465h34v-453c0 -141 69 -217 200 -217c107 0 192 60 192 207v463h34z" />
    <glyph glyph-name="Ucircumflex" unicode="&#xdb;" horiz-adv-x="614" 
d="M394 746h-34l-52 91l-52 -91h-33l71 112h29zM538 688v-455c0 -158 -85 -247 -232 -247c-144 0 -228 95 -228 237v465h34v-453c0 -141 69 -217 200 -217c107 0 192 60 192 207v463h34z" />
    <glyph glyph-name="Udieresis" unicode="&#xdc;" horiz-adv-x="614" 
d="M248 831c15 0 27 -12 27 -27s-12 -27 -27 -27s-27 12 -27 27s12 27 27 27zM368 831c15 0 27 -12 27 -27s-12 -27 -27 -27s-27 12 -27 27s12 27 27 27zM538 688v-455c0 -158 -85 -247 -232 -247c-144 0 -228 95 -228 237v465h34v-453c0 -141 69 -217 200 -217
c107 0 192 60 192 207v463h34z" />
    <glyph glyph-name="Ugrave" unicode="&#xd9;" horiz-adv-x="614" 
d="M250 865l85 -117l-31 2l-98 118zM538 688v-455c0 -158 -85 -247 -232 -247c-144 0 -228 95 -228 237v465h34v-453c0 -141 69 -217 200 -217c107 0 192 60 192 207v463h34z" />
    <glyph glyph-name="V" unicode="V" horiz-adv-x="549" 
d="M301 0h-45l-236 688h35l224 -652l223 652h35z" />
    <glyph glyph-name="W" unicode="W" horiz-adv-x="796" 
d="M55 688l129 -488c14 -54 27 -108 41 -168c12 60 25 114 37 168l117 478h46l115 -478c13 -54 26 -108 39 -168c14 60 29 114 43 168l127 488h35l-184 -688h-43l-116 478c-13 54 -26 108 -39 168c-13 -60 -27 -114 -40 -168l-115 -478h-43l-184 688h35z" />
    <glyph glyph-name="Wacute" unicode="&#x1e82;" horiz-adv-x="796" 
d="M412 739l-31 -2l85 117l44 3zM55 688l129 -488c14 -54 27 -108 41 -168c12 60 25 114 37 168l117 478h46l115 -478c13 -54 26 -108 39 -168c14 60 29 114 43 168l127 488h35l-184 -688h-43l-116 478c-13 54 -26 108 -39 168c-13 -60 -27 -114 -40 -168l-115 -478h-43
l-184 688h35z" />
    <glyph glyph-name="Wcircumflex" unicode="&#x174;" horiz-adv-x="796" 
d="M488 736h-34l-52 91l-52 -91h-33l71 112h29zM55 688l129 -488c14 -54 27 -108 41 -168c12 60 25 114 37 168l117 478h46l115 -478c13 -54 26 -108 39 -168c14 60 29 114 43 168l127 488h35l-184 -688h-43l-116 478c-13 54 -26 108 -39 168c-13 -60 -27 -114 -40 -168
l-115 -478h-43l-184 688h35z" />
    <glyph glyph-name="Wdieresis" unicode="&#x1e84;" horiz-adv-x="796" 
d="M342 821c15 0 27 -12 27 -27s-12 -27 -27 -27s-27 12 -27 27s12 27 27 27zM462 821c15 0 27 -12 27 -27s-12 -27 -27 -27s-27 12 -27 27s12 27 27 27zM55 688l129 -488c14 -54 27 -108 41 -168c12 60 25 114 37 168l117 478h46l115 -478c13 -54 26 -108 39 -168
c14 60 29 114 43 168l127 488h35l-184 -688h-43l-116 478c-13 54 -26 108 -39 168c-13 -60 -27 -114 -40 -168l-115 -478h-43l-184 688h35z" />
    <glyph glyph-name="Wgrave" unicode="&#x1e80;" horiz-adv-x="796" 
d="M344 855l85 -117l-31 2l-98 118zM55 688l129 -488c14 -54 27 -108 41 -168c12 60 25 114 37 168l117 478h46l115 -478c13 -54 26 -108 39 -168c14 60 29 114 43 168l127 488h35l-184 -688h-43l-116 478c-13 54 -26 108 -39 168c-13 -60 -27 -114 -40 -168l-115 -478h-43
l-184 688h35z" />
    <glyph glyph-name="X" unicode="X" horiz-adv-x="472" 
d="M263 349l190 -349h-41l-170 319l-178 -319h-38l196 347l-182 341h39l164 -313l178 313h40z" />
    <glyph glyph-name="Y" unicode="Y" horiz-adv-x="462" 
d="M259 307v-307h-34v307l-207 381h41l184 -347l183 347h40z" />
    <glyph glyph-name="Yacute" unicode="&#xdd;" horiz-adv-x="462" 
d="M252 759l-31 -2l85 117l44 3zM259 0h-34v307l-207 381h41l184 -347l183 347h40l-207 -381v-307z" />
    <glyph glyph-name="Ycircumflex" unicode="&#x176;" horiz-adv-x="462" 
d="M328 756h-34l-52 91l-52 -91h-33l71 112h29zM259 0h-34v307l-207 381h41l184 -347l183 347h40l-207 -381v-307z" />
    <glyph glyph-name="Ydieresis" unicode="&#x178;" horiz-adv-x="462" 
d="M182 841c15 0 27 -12 27 -27s-12 -27 -27 -27s-27 12 -27 27s12 27 27 27zM302 841c15 0 27 -12 27 -27s-12 -27 -27 -27s-27 12 -27 27s12 27 27 27zM259 0h-34v307l-207 381h41l184 -347l183 347h40l-207 -381v-307z" />
    <glyph glyph-name="Ygrave" unicode="&#x1ef2;" horiz-adv-x="462" 
d="M184 875l85 -117l-31 2l-98 118zM259 0h-34v307l-207 381h41l184 -347l183 347h40l-207 -381v-307z" />
    <glyph glyph-name="Z" unicode="Z" horiz-adv-x="486" 
d="M449 656l-367 -624h369v-32h-412v25l367 627h-338v32h381v-28z" />
    <glyph glyph-name="a" unicode="a" horiz-adv-x="449" 
d="M99 417l-2 33c37 23 76 34 127 34c84 0 145 -49 145 -140v-344h-29l-4 95c-28 -72 -89 -105 -150 -105c-65 0 -127 48 -127 130c0 111 99 162 202 162c30 0 51 -2 74 -7v63c0 82 -51 115 -121 115c-35 0 -75 -12 -115 -36zM335 195v50c-23 4 -49 6 -77 6
c-98 0 -163 -57 -163 -125c0 -66 46 -105 104 -105c66 0 136 60 136 174z" />
    <glyph glyph-name="aacute" unicode="&#xe1;" horiz-adv-x="449" 
d="M242 537l-31 -2l85 117l44 3zM99 417l-2 33c37 23 76 34 127 34c84 0 145 -49 145 -140v-344h-29l-4 95c-28 -72 -89 -105 -150 -105c-65 0 -127 48 -127 130c0 111 99 162 202 162c30 0 51 -2 74 -7v63c0 82 -51 115 -121 115c-35 0 -75 -12 -115 -36zM335 195v50
c-23 4 -49 6 -77 6c-98 0 -163 -57 -163 -125c0 -66 46 -105 104 -105c66 0 136 60 136 174z" />
    <glyph glyph-name="abreve" unicode="&#x103;" horiz-adv-x="449" 
d="M136 643h27c4 -54 31 -83 69 -83s65 29 69 83h27c-4 -62 -35 -109 -96 -109c-62 0 -92 46 -96 109zM99 417l-2 33c37 23 76 34 127 34c84 0 145 -49 145 -140v-344h-29l-4 95c-28 -72 -89 -105 -150 -105c-65 0 -127 48 -127 130c0 111 99 162 202 162c30 0 51 -2 74 -7
v63c0 82 -51 115 -121 115c-35 0 -75 -12 -115 -36zM335 195v50c-23 4 -49 6 -77 6c-98 0 -163 -57 -163 -125c0 -66 46 -105 104 -105c66 0 136 60 136 174z" />
    <glyph glyph-name="acircumflex" unicode="&#xe2;" horiz-adv-x="449" 
d="M318 534h-34l-52 91l-52 -91h-33l71 112h29zM99 417l-2 33c37 23 76 34 127 34c84 0 145 -49 145 -140v-344h-29l-4 95c-28 -72 -89 -105 -150 -105c-65 0 -127 48 -127 130c0 111 99 162 202 162c30 0 51 -2 74 -7v63c0 82 -51 115 -121 115c-35 0 -75 -12 -115 -36z
M335 195v50c-23 4 -49 6 -77 6c-98 0 -163 -57 -163 -125c0 -66 46 -105 104 -105c66 0 136 60 136 174z" />
    <glyph glyph-name="adieresis" unicode="&#xe4;" horiz-adv-x="449" 
d="M172 619c15 0 27 -12 27 -27s-12 -27 -27 -27s-27 12 -27 27s12 27 27 27zM292 619c15 0 27 -12 27 -27s-12 -27 -27 -27s-27 12 -27 27s12 27 27 27zM99 417l-2 33c37 23 76 34 127 34c84 0 145 -49 145 -140v-344h-29l-4 95c-28 -72 -89 -105 -150 -105
c-65 0 -127 48 -127 130c0 111 99 162 202 162c30 0 51 -2 74 -7v63c0 82 -51 115 -121 115c-35 0 -75 -12 -115 -36zM335 195v50c-23 4 -49 6 -77 6c-98 0 -163 -57 -163 -125c0 -66 46 -105 104 -105c66 0 136 60 136 174z" />
    <glyph glyph-name="agrave" unicode="&#xe0;" horiz-adv-x="449" 
d="M174 653l85 -117l-31 2l-98 118zM99 417l-2 33c37 23 76 34 127 34c84 0 145 -49 145 -140v-344h-29l-4 95c-28 -72 -89 -105 -150 -105c-65 0 -127 48 -127 130c0 111 99 162 202 162c30 0 51 -2 74 -7v63c0 82 -51 115 -121 115c-35 0 -75 -12 -115 -36zM335 195v50
c-23 4 -49 6 -77 6c-98 0 -163 -57 -163 -125c0 -66 46 -105 104 -105c66 0 136 60 136 174z" />
    <glyph glyph-name="aring" unicode="&#xe5;" horiz-adv-x="449" 
d="M232 665c36 0 65 -27 65 -64s-29 -64 -65 -64s-65 27 -65 64s29 64 65 64zM232 641c-21 0 -37 -14 -37 -40s16 -40 37 -40s37 14 37 40s-16 40 -37 40zM99 417l-2 33c37 23 76 34 127 34c84 0 145 -49 145 -140v-344h-29l-4 95c-28 -72 -89 -105 -150 -105
c-65 0 -127 48 -127 130c0 111 99 162 202 162c30 0 51 -2 74 -7v63c0 82 -51 115 -121 115c-35 0 -75 -12 -115 -36zM335 195v50c-23 4 -49 6 -77 6c-98 0 -163 -57 -163 -125c0 -66 46 -105 104 -105c66 0 136 60 136 174z" />
    <glyph glyph-name="atilde" unicode="&#xe3;" horiz-adv-x="449" 
d="M326 618v-7c0 -28 -18 -43 -42 -43c-19 0 -38 5 -60 13c-19 7 -34 10 -43 10c-14 0 -20 -10 -20 -23h-23v7c0 28 18 43 42 43c19 0 38 -5 60 -13c18 -7 34 -10 43 -10c14 0 20 10 20 23h23zM99 417l-2 33c37 23 76 34 127 34c84 0 145 -49 145 -140v-344h-29l-4 95
c-28 -72 -89 -105 -150 -105c-65 0 -127 48 -127 130c0 111 99 162 202 162c30 0 51 -2 74 -7v63c0 82 -51 115 -121 115c-35 0 -75 -12 -115 -36zM335 195v50c-23 4 -49 6 -77 6c-98 0 -163 -57 -163 -125c0 -66 46 -105 104 -105c66 0 136 60 136 174z" />
    <glyph glyph-name="ae" unicode="&#xe6;" horiz-adv-x="743" 
d="M103 417l-2 33c37 23 78 34 129 34c72 0 131 -41 149 -113c30 71 84 113 149 113c117 0 162 -107 162 -214c0 -12 -1 -28 -3 -40h-300c0 -137 59 -209 158 -209c41 0 80 11 118 33l2 -32c-34 -21 -77 -32 -134 -32c-76 0 -138 46 -165 135c-24 -87 -109 -135 -177 -135
s-130 48 -130 130c0 104 101 149 204 149c31 0 64 -1 89 -5v54c0 92 -60 135 -132 135c-35 0 -77 -12 -117 -36zM388 260h268c0 130 -50 192 -129 192c-76 0 -132 -74 -139 -192zM352 198v35c-25 4 -63 5 -92 5c-98 0 -165 -48 -165 -112c0 -66 43 -105 101 -105
c66 0 156 65 156 177z" />
    <glyph glyph-name="b" unicode="b" horiz-adv-x="523" 
d="M118 735v-368c22 63 84 117 161 117c120 0 191 -104 191 -242c0 -164 -100 -252 -202 -252c-62 0 -129 40 -151 114l-4 -104h-29v735h34zM118 280v-89c0 -96 70 -170 147 -170s169 64 169 217c0 105 -45 215 -163 215c-85 0 -153 -90 -153 -173z" />
    <glyph glyph-name="c" unicode="c" horiz-adv-x="412" 
d="M375 44l2 -32c-33 -16 -67 -22 -116 -22c-107 0 -208 75 -208 243s101 251 222 251c50 0 79 -9 106 -22l-4 -33c-30 15 -58 24 -99 24c-98 0 -189 -69 -189 -214c0 -158 85 -218 186 -218c34 0 73 10 100 23z" />
    <glyph glyph-name="ccedilla" unicode="&#xe7;" horiz-adv-x="412" 
d="M381 462l-4 -33c-30 15 -58 24 -99 24c-98 0 -189 -69 -189 -214c0 -158 85 -218 186 -218c34 0 73 10 100 23l2 -32c-30 -14 -60 -21 -101 -22l-14 -23c43 -5 62 -30 62 -60c0 -46 -39 -68 -86 -68c-16 0 -35 4 -53 13l5 24c19 -9 34 -12 51 -12c30 0 49 18 49 40
c0 28 -17 41 -73 41l27 46c-100 7 -191 83 -191 242c0 168 101 251 222 251c50 0 79 -9 106 -22z" />
    <glyph glyph-name="d" unicode="d" horiz-adv-x="523" 
d="M439 735v-735h-29l-4 110c-21 -64 -84 -120 -162 -120c-120 0 -191 104 -191 242c0 164 100 252 202 252c61 0 127 -38 150 -110v361h34zM405 194v89c0 96 -70 170 -147 170s-169 -64 -169 -217c0 -105 45 -215 163 -215c85 0 153 90 153 173z" />
    <glyph glyph-name="e" unicode="e" horiz-adv-x="451" 
d="M368 54l2 -32c-34 -21 -81 -32 -138 -32c-105 0 -184 82 -184 236c0 156 83 258 185 258c117 0 165 -107 165 -214c0 -12 -1 -28 -3 -40h-311c0 -137 59 -209 162 -209c41 0 84 11 122 33zM85 260h279c0 130 -53 192 -132 192c-76 0 -140 -74 -147 -192z" />
    <glyph glyph-name="eacute" unicode="&#xe9;" horiz-adv-x="451" 
d="M240 537l-31 -2l85 117l44 3zM368 54l2 -32c-34 -21 -81 -32 -138 -32c-105 0 -184 82 -184 236c0 156 83 258 185 258c117 0 165 -107 165 -214c0 -12 -1 -28 -3 -40h-311c0 -137 59 -209 162 -209c41 0 84 11 122 33zM85 260h279c0 130 -53 192 -132 192
c-76 0 -140 -74 -147 -192z" />
    <glyph glyph-name="ecircumflex" unicode="&#xea;" horiz-adv-x="451" 
d="M316 534h-34l-52 91l-52 -91h-33l71 112h29zM368 54l2 -32c-34 -21 -81 -32 -138 -32c-105 0 -184 82 -184 236c0 156 83 258 185 258c117 0 165 -107 165 -214c0 -12 -1 -28 -3 -40h-311c0 -137 59 -209 162 -209c41 0 84 11 122 33zM85 260h279c0 130 -53 192 -132 192
c-76 0 -140 -74 -147 -192z" />
    <glyph glyph-name="edieresis" unicode="&#xeb;" horiz-adv-x="451" 
d="M170 619c15 0 27 -12 27 -27s-12 -27 -27 -27s-27 12 -27 27s12 27 27 27zM290 619c15 0 27 -12 27 -27s-12 -27 -27 -27s-27 12 -27 27s12 27 27 27zM368 54l2 -32c-34 -21 -81 -32 -138 -32c-105 0 -184 82 -184 236c0 156 83 258 185 258c117 0 165 -107 165 -214
c0 -12 -1 -28 -3 -40h-311c0 -137 59 -209 162 -209c41 0 84 11 122 33zM85 260h279c0 130 -53 192 -132 192c-76 0 -140 -74 -147 -192z" />
    <glyph glyph-name="egrave" unicode="&#xe8;" horiz-adv-x="451" 
d="M172 653l85 -117l-31 2l-98 118zM368 54l2 -32c-34 -21 -81 -32 -138 -32c-105 0 -184 82 -184 236c0 156 83 258 185 258c117 0 165 -107 165 -214c0 -12 -1 -28 -3 -40h-311c0 -137 59 -209 162 -209c41 0 84 11 122 33zM85 260h279c0 130 -53 192 -132 192
c-76 0 -140 -74 -147 -192z" />
    <glyph glyph-name="f" unicode="f" horiz-adv-x="268" 
d="M104 470v68c0 137 74 207 165 207c25 0 40 -3 56 -10l-3 -31c-17 7 -32 10 -58 10c-73 0 -126 -63 -126 -165v-79h121v-29h-121v-441h-34v441h-67v29h67z" />
    <glyph glyph-name="g" unicode="g" horiz-adv-x="523" 
d="M438 474v-447c0 -146 -77 -242 -212 -242c-45 0 -102 12 -136 39l4 34c41 -27 89 -43 138 -43c107 0 172 81 172 207v82c-23 -61 -84 -114 -160 -114c-120 0 -191 104 -191 242c0 164 100 252 202 252c62 0 129 -40 151 -114l4 104h28zM405 179v113
c-5 92 -73 161 -147 161c-77 0 -169 -64 -169 -217c0 -105 45 -215 163 -215c80 0 145 79 153 158z" />
    <glyph glyph-name="gbreve" unicode="&#x11f;" horiz-adv-x="523" 
d="M158 643h27c4 -54 31 -83 69 -83s65 29 69 83h27c-4 -62 -35 -109 -96 -109c-62 0 -92 46 -96 109zM438 474v-447c0 -146 -77 -242 -212 -242c-45 0 -102 12 -136 39l4 34c41 -27 89 -43 138 -43c107 0 172 81 172 207v82c-23 -61 -84 -114 -160 -114
c-120 0 -191 104 -191 242c0 164 100 252 202 252c62 0 129 -40 151 -114l4 104h28zM405 179v113c-5 92 -73 161 -147 161c-77 0 -169 -64 -169 -217c0 -105 45 -215 163 -215c80 0 145 79 153 158z" />
    <glyph glyph-name="h" unicode="h" horiz-adv-x="499" 
d="M118 735v-361c20 62 79 110 147 110c101 0 154 -72 154 -164v-320h-34v306c0 90 -45 146 -124 146c-84 0 -143 -93 -143 -170v-282h-34v735h34z" />
    <glyph glyph-name="i" unicode="i" horiz-adv-x="202" 
d="M101 629c15 0 27 -12 27 -27s-12 -27 -27 -27s-27 12 -27 27s12 27 27 27zM84 0v474h34v-474h-34z" />
    <glyph glyph-name="dotlessi" unicode="&#x131;" horiz-adv-x="194" 
d="M114 0h-34v474h34v-474z" />
    <glyph glyph-name="iacute" unicode="&#xed;" horiz-adv-x="194" 
d="M107 537l-31 -2l85 117l44 3zM80 0v474h34v-474h-34z" />
    <glyph glyph-name="icircumflex" unicode="&#xee;" horiz-adv-x="194" 
d="M183 534h-34l-52 91l-52 -91h-33l71 112h29zM80 0v474h34v-474h-34z" />
    <glyph glyph-name="idieresis" unicode="&#xef;" horiz-adv-x="194" 
d="M37 619c15 0 27 -12 27 -27s-12 -27 -27 -27s-27 12 -27 27s12 27 27 27zM157 619c15 0 27 -12 27 -27s-12 -27 -27 -27s-27 12 -27 27s12 27 27 27zM80 0v474h34v-474h-34z" />
    <glyph glyph-name="igrave" unicode="&#xec;" horiz-adv-x="194" 
d="M39 653l85 -117l-31 2l-98 118zM80 0v474h34v-474h-34z" />
    <glyph glyph-name="ij" unicode="&#x133;" horiz-adv-x="419" 
d="M101 629c15 0 27 -12 27 -27s-12 -27 -27 -27s-27 12 -27 27s12 27 27 27zM318 629c15 0 27 -12 27 -27s-12 -27 -27 -27s-27 12 -27 27s12 27 27 27zM84 474h34v-474h-34v474zM335 474v-332c0 -195 -60 -286 -169 -357l-19 27c102 64 154 148 154 321v341h34z" />
    <glyph glyph-name="j" unicode="j" horiz-adv-x="217" 
d="M116 629c15 0 27 -12 27 -27s-12 -27 -27 -27s-27 12 -27 27s12 27 27 27zM133 474v-332c0 -195 -60 -286 -169 -357l-19 27c102 64 154 148 154 321v341h34z" />
    <glyph glyph-name="k" unicode="k" horiz-adv-x="414" 
d="M399 0h-51l-204 216l-26 -27v-189h-34v735h34v-510l235 251h43l-225 -238z" />
    <glyph glyph-name="l" unicode="l" horiz-adv-x="202" 
d="M118 0h-34v735h34v-735z" />
    <glyph glyph-name="m" unicode="m" horiz-adv-x="760" 
d="M113 474l4 -100c23 67 75 110 137 110c78 0 125 -50 140 -114c24 68 79 114 141 114c95 0 145 -75 145 -158v-326h-34v312c0 81 -40 139 -115 139c-72 0 -132 -85 -132 -166v-285h-34v312c0 81 -40 139 -115 139c-72 0 -132 -85 -132 -166v-285h-34v474h29z" />
    <glyph glyph-name="n" unicode="n" horiz-adv-x="499" 
d="M113 474l5 -102c19 63 78 112 147 112c101 0 154 -72 154 -164v-320h-34v306c0 90 -45 146 -124 146c-84 0 -143 -93 -143 -170v-282h-34v474h29z" />
    <glyph glyph-name="ntilde" unicode="&#xf1;" horiz-adv-x="499" 
d="M343 618v-7c0 -28 -18 -43 -42 -43c-19 0 -38 5 -60 13c-19 7 -34 10 -43 10c-14 0 -20 -10 -20 -23h-23v7c0 28 18 43 42 43c19 0 38 -5 60 -13c18 -7 34 -10 43 -10c14 0 20 10 20 23h23zM113 474l5 -102c19 63 78 112 147 112c101 0 154 -72 154 -164v-320h-34v306
c0 90 -45 146 -124 146c-84 0 -143 -93 -143 -170v-282h-34v474h29z" />
    <glyph glyph-name="o" unicode="o" horiz-adv-x="494" 
d="M247 484c125 0 197 -108 197 -247c0 -138 -72 -247 -197 -247s-197 109 -197 247c0 139 72 247 197 247zM247 453c-89 0 -161 -76 -161 -216s72 -216 161 -216s161 76 161 216s-72 216 -161 216z" />
    <glyph glyph-name="oacute" unicode="&#xf3;" horiz-adv-x="494" 
d="M257 537l-31 -2l85 117l44 3zM247 484c125 0 197 -108 197 -247c0 -138 -72 -247 -197 -247s-197 109 -197 247c0 139 72 247 197 247zM247 453c-89 0 -161 -76 -161 -216s72 -216 161 -216s161 76 161 216s-72 216 -161 216z" />
    <glyph glyph-name="ocircumflex" unicode="&#xf4;" horiz-adv-x="494" 
d="M333 534h-34l-52 91l-52 -91h-33l71 112h29zM247 484c125 0 197 -108 197 -247c0 -138 -72 -247 -197 -247s-197 109 -197 247c0 139 72 247 197 247zM247 453c-89 0 -161 -76 -161 -216s72 -216 161 -216s161 76 161 216s-72 216 -161 216z" />
    <glyph glyph-name="odieresis" unicode="&#xf6;" horiz-adv-x="494" 
d="M187 619c15 0 27 -12 27 -27s-12 -27 -27 -27s-27 12 -27 27s12 27 27 27zM307 619c15 0 27 -12 27 -27s-12 -27 -27 -27s-27 12 -27 27s12 27 27 27zM247 484c125 0 197 -108 197 -247c0 -138 -72 -247 -197 -247s-197 109 -197 247c0 139 72 247 197 247zM247 453
c-89 0 -161 -76 -161 -216s72 -216 161 -216s161 76 161 216s-72 216 -161 216z" />
    <glyph glyph-name="ograve" unicode="&#xf2;" horiz-adv-x="494" 
d="M189 653l85 -117l-31 2l-98 118zM247 484c125 0 197 -108 197 -247c0 -138 -72 -247 -197 -247s-197 109 -197 247c0 139 72 247 197 247zM247 453c-89 0 -161 -76 -161 -216s72 -216 161 -216s161 76 161 216s-72 216 -161 216z" />
    <glyph glyph-name="oslash" unicode="&#xf8;" horiz-adv-x="490" 
d="M446 474l-50 -66c31 -44 48 -104 48 -171c0 -138 -72 -247 -197 -247c-54 0 -98 20 -130 54l-49 -63l-24 19l53 69c-31 44 -47 102 -47 168c0 139 72 247 197 247c53 0 96 -19 128 -52l47 61zM119 97l236 308c-29 32 -67 48 -108 48c-89 0 -161 -76 -161 -216
c0 -58 12 -104 33 -140zM373 379l-236 -308c29 -33 68 -50 110 -50c89 0 161 76 161 216c0 59 -13 107 -35 142z" />
    <glyph glyph-name="otilde" unicode="&#xf5;" horiz-adv-x="494" 
d="M341 618v-7c0 -28 -18 -43 -42 -43c-19 0 -38 5 -60 13c-19 7 -34 10 -43 10c-14 0 -20 -10 -20 -23h-23v7c0 28 18 43 42 43c19 0 38 -5 60 -13c18 -7 34 -10 43 -10c14 0 20 10 20 23h23zM247 484c125 0 197 -108 197 -247c0 -138 -72 -247 -197 -247
s-197 109 -197 247c0 139 72 247 197 247zM247 453c-89 0 -161 -76 -161 -216s72 -216 161 -216s161 76 161 216s-72 216 -161 216z" />
    <glyph glyph-name="oe" unicode="&#x153;" horiz-adv-x="811" 
d="M728 54l2 -32c-34 -21 -81 -32 -138 -32c-80 0 -141 51 -167 141c-27 -84 -87 -141 -178 -141c-125 0 -197 109 -197 247c0 139 72 247 197 247c92 0 153 -58 179 -144c28 88 91 144 167 144c117 0 165 -107 165 -214c0 -12 -1 -28 -3 -40h-311c0 -137 59 -209 162 -209
c41 0 84 11 122 33zM247 21c90 0 161 76 161 216s-72 216 -161 216s-161 -76 -161 -216s72 -216 161 -216zM445 260h279c0 130 -53 192 -132 192c-76 0 -140 -74 -147 -192z" />
    <glyph glyph-name="p" unicode="p" horiz-adv-x="523" 
d="M113 474l4 -110c21 64 84 120 162 120c120 0 191 -104 191 -242c0 -164 -100 -252 -202 -252c-61 0 -127 38 -150 110v-305h-34v679h29zM118 280v-89c0 -96 70 -170 147 -170s169 64 169 217c0 105 -45 215 -163 215c-85 0 -153 -90 -153 -173z" />
    <glyph glyph-name="q" unicode="q" horiz-adv-x="523" 
d="M439 474v-679h-34v312c-22 -63 -84 -117 -161 -117c-120 0 -191 104 -191 242c0 164 100 252 202 252c62 0 129 -40 151 -114l4 104h29zM405 194v89c0 96 -70 170 -147 170s-169 -64 -169 -217c0 -105 45 -215 163 -215c85 0 153 90 153 173z" />
    <glyph glyph-name="r" unicode="r" horiz-adv-x="269" 
d="M113 474l4 -94c11 60 57 104 107 104c8 0 20 -1 25 -4l-4 -32c-7 3 -17 4 -27 4c-65 0 -100 -89 -100 -178v-274h-34v474h29z" />
    <glyph glyph-name="s" unicode="s" horiz-adv-x="351" 
d="M38 16l3 34c36 -20 73 -29 108 -29c65 0 117 41 117 96c0 51 -32 76 -102 105c-62 26 -108 58 -108 130c0 82 63 132 141 132c38 0 73 -10 95 -25l-3 -35c-26 18 -60 29 -96 29c-55 0 -102 -41 -102 -96c0 -60 35 -82 100 -109c70 -29 111 -65 111 -124
c0 -82 -69 -134 -154 -134c-42 0 -84 10 -110 26z" />
    <glyph glyph-name="scedilla" unicode="&#x15f;" horiz-adv-x="351" 
d="M292 459l-3 -35c-26 18 -60 29 -96 29c-55 0 -102 -41 -102 -96c0 -60 35 -82 100 -109c70 -29 111 -65 111 -124c0 -67 -46 -113 -108 -129l-17 -28c43 -5 62 -30 62 -60c0 -46 -39 -68 -86 -68c-16 0 -35 4 -53 13l5 24c19 -9 34 -12 51 -12c30 0 49 18 49 40
c0 28 -17 41 -73 41l27 45h-11c-42 0 -84 10 -110 26l3 34c36 -20 73 -29 108 -29c65 0 117 41 117 96c0 51 -32 76 -102 105c-62 26 -108 58 -108 130c0 82 63 132 141 132c38 0 73 -10 95 -25z" />
    <glyph glyph-name="germandbls" unicode="&#xdf;" horiz-adv-x="535" 
d="M174 8l3 33c32 -12 73 -18 104 -18c93 0 161 71 161 155c0 106 -79 173 -229 173v29c124 0 221 72 221 177c0 89 -54 158 -151 158c-82 0 -153 -70 -153 -164v-551h-34v441h-59v29h59v71c0 130 89 204 186 204c121 0 188 -85 188 -181c0 -100 -72 -169 -168 -191
c111 -23 176 -90 176 -188c0 -113 -84 -193 -202 -193c-36 0 -74 5 -102 16z" />
    <glyph glyph-name="t" unicode="t" horiz-adv-x="306" 
d="M152 470h119v-29h-119v-333c0 -62 31 -88 71 -88c23 0 38 4 52 12l2 -29c-13 -8 -35 -13 -60 -13c-54 0 -99 32 -99 113v338h-76v29h76v130h34v-130z" />
    <glyph glyph-name="u" unicode="u" horiz-adv-x="499" 
d="M415 474v-474h-29l-5 102c-19 -63 -78 -112 -147 -112c-101 0 -154 72 -154 164v320h34v-306c0 -90 45 -146 124 -146c84 0 143 93 143 170v282h34z" />
    <glyph glyph-name="uacute" unicode="&#xfa;" horiz-adv-x="499" 
d="M260 537l-31 -2l85 117l44 3zM415 0h-29l-5 102c-19 -63 -78 -112 -147 -112c-101 0 -154 72 -154 164v320h34v-306c0 -90 45 -146 124 -146c84 0 143 93 143 170v282h34v-474z" />
    <glyph glyph-name="ucircumflex" unicode="&#xfb;" horiz-adv-x="499" 
d="M336 534h-34l-52 91l-52 -91h-33l71 112h29zM415 0h-29l-5 102c-19 -63 -78 -112 -147 -112c-101 0 -154 72 -154 164v320h34v-306c0 -90 45 -146 124 -146c84 0 143 93 143 170v282h34v-474z" />
    <glyph glyph-name="udieresis" unicode="&#xfc;" horiz-adv-x="499" 
d="M190 619c15 0 27 -12 27 -27s-12 -27 -27 -27s-27 12 -27 27s12 27 27 27zM310 619c15 0 27 -12 27 -27s-12 -27 -27 -27s-27 12 -27 27s12 27 27 27zM415 0h-29l-5 102c-19 -63 -78 -112 -147 -112c-101 0 -154 72 -154 164v320h34v-306c0 -90 45 -146 124 -146
c84 0 143 93 143 170v282h34v-474z" />
    <glyph glyph-name="ugrave" unicode="&#xf9;" horiz-adv-x="499" 
d="M192 653l85 -117l-31 2l-98 118zM415 0h-29l-5 102c-19 -63 -78 -112 -147 -112c-101 0 -154 72 -154 164v320h34v-306c0 -90 45 -146 124 -146c84 0 143 93 143 170v282h34v-474z" />
    <glyph glyph-name="v" unicode="v" horiz-adv-x="446" 
d="M242 0h-37l-177 474h40l156 -437l160 437h37z" />
    <glyph glyph-name="w" unicode="w" horiz-adv-x="650" 
d="M486 0h-44l-115 423l-116 -423h-43l-138 474h37l123 -444l120 440h37l118 -440l123 444h37z" />
    <glyph glyph-name="wacute" unicode="&#x1e83;" horiz-adv-x="650" 
d="M338 537l-31 -2l85 117l44 3zM442 0l-115 423l-116 -423h-43l-138 474h37l123 -444l120 440h37l118 -440l123 444h37l-139 -474h-44z" />
    <glyph glyph-name="wcircumflex" unicode="&#x175;" horiz-adv-x="650" 
d="M414 534h-34l-52 91l-52 -91h-33l71 112h29zM442 0l-115 423l-116 -423h-43l-138 474h37l123 -444l120 440h37l118 -440l123 444h37l-139 -474h-44z" />
    <glyph glyph-name="wdieresis" unicode="&#x1e85;" horiz-adv-x="650" 
d="M268 619c15 0 27 -12 27 -27s-12 -27 -27 -27s-27 12 -27 27s12 27 27 27zM388 619c15 0 27 -12 27 -27s-12 -27 -27 -27s-27 12 -27 27s12 27 27 27zM442 0l-115 423l-116 -423h-43l-138 474h37l123 -444l120 440h37l118 -440l123 444h37l-139 -474h-44z" />
    <glyph glyph-name="wgrave" unicode="&#x1e81;" horiz-adv-x="650" 
d="M270 653l85 -117l-31 2l-98 118zM442 0l-115 423l-116 -423h-43l-138 474h37l123 -444l120 440h37l118 -440l123 444h37l-139 -474h-44z" />
    <glyph glyph-name="x" unicode="x" horiz-adv-x="394" 
d="M213 236l148 -236h-40l-129 211l-136 -211h-39l155 235l-147 239h39l130 -213l137 213h39z" />
    <glyph glyph-name="y" unicode="y" horiz-adv-x="418" 
d="M408 474l-179 -474c-46 -114 -96 -179 -181 -215l-14 29c78 31 137 111 157 187l-176 473h41l155 -439l159 439h38z" />
    <glyph glyph-name="yacute" unicode="&#xfd;" horiz-adv-x="418" 
d="M221 537l-31 -2l85 117l44 3zM408 474l-179 -474c-46 -114 -96 -179 -181 -215l-14 29c78 31 137 111 157 187l-176 473h41l155 -439l159 439h38z" />
    <glyph glyph-name="ycircumflex" unicode="&#x177;" horiz-adv-x="418" 
d="M297 534h-34l-52 91l-52 -91h-33l71 112h29zM408 474l-179 -474c-46 -114 -96 -179 -181 -215l-14 29c78 31 137 111 157 187l-176 473h41l155 -439l159 439h38z" />
    <glyph glyph-name="ydieresis" unicode="&#xff;" horiz-adv-x="418" 
d="M151 619c15 0 27 -12 27 -27s-12 -27 -27 -27s-27 12 -27 27s12 27 27 27zM271 619c15 0 27 -12 27 -27s-12 -27 -27 -27s-27 12 -27 27s12 27 27 27zM408 474l-179 -474c-46 -114 -96 -179 -181 -215l-14 29c78 31 137 111 157 187l-176 473h41l155 -439l159 439h38z
" />
    <glyph glyph-name="ygrave" unicode="&#x1ef3;" horiz-adv-x="418" 
d="M153 653l85 -117l-31 2l-98 118zM408 474l-179 -474c-46 -114 -96 -179 -181 -215l-14 29c78 31 137 111 157 187l-176 473h41l155 -439l159 439h38z" />
    <glyph glyph-name="z" unicode="z" horiz-adv-x="379" 
d="M337 442l-271 -413h271v-29h-310v27l271 414h-245v29h284v-28z" />
    <glyph glyph-name="zero" unicode="0" 
d="M228 672c112 0 182 -110 182 -341s-70 -341 -182 -341s-182 110 -182 341s70 341 182 341zM228 640c-90 0 -146 -104 -146 -309s56 -309 146 -309s146 104 146 309s-56 309 -146 309z" />
    <glyph glyph-name="one" unicode="1" 
d="M314 0h-34v612l-176 -104l-2 35l195 119h17v-662z" />
    <glyph glyph-name="two" unicode="2" 
d="M93 577l-3 38c37 37 96 57 145 57c103 0 167 -59 167 -155c0 -76 -48 -154 -177 -316l-135 -169h317v-32h-364v23l160 203c115 146 163 220 163 287c0 85 -52 127 -133 127c-47 0 -104 -23 -140 -63z" />
    <glyph glyph-name="three" unicode="3" 
d="M91 589l-2 36c36 29 82 47 139 47c108 0 168 -68 168 -152c0 -90 -78 -160 -165 -177c103 -12 168 -79 168 -174c0 -102 -89 -179 -203 -179c-54 0 -102 12 -140 41l3 36c48 -33 91 -45 141 -45c90 0 163 61 163 144c0 92 -65 156 -204 156v32c107 4 201 67 201 158
c0 75 -44 128 -142 128c-41 0 -87 -17 -127 -51z" />
    <glyph glyph-name="four" unicode="4" 
d="M337 223h88v-32h-88v-190h-34v190h-262v24l254 447h42v-439zM84 223h219v174c0 50 0 150 4 230z" />
    <glyph glyph-name="five" unicode="5" 
d="M379 626h-243l-14 -246h33c148 0 236 -70 236 -196c0 -107 -92 -194 -207 -194c-54 0 -89 9 -129 37l4 36c44 -32 83 -41 129 -41c83 0 167 65 167 154c0 114 -70 172 -208 172h-59l18 310h273v-32z" />
    <glyph glyph-name="six" unicode="6" 
d="M374 672l2 -31c-181 -19 -289 -196 -291 -379c25 57 81 102 160 102c101 0 164 -86 164 -185c0 -109 -81 -189 -182 -189c-115 0 -179 112 -179 246c0 247 144 420 326 436zM236 331c-84 0 -146 -71 -146 -130c0 -89 52 -179 143 -179c75 0 137 63 137 151
c0 84 -45 158 -134 158z" />
    <glyph glyph-name="seven" unicode="7" 
d="M423 633l-288 -633h-37l285 626h-325v32h365v-25z" />
    <glyph glyph-name="eight" unicode="8" 
d="M241 672c101 0 165 -65 165 -158c0 -80 -60 -136 -133 -175c93 -47 135 -106 135 -182c0 -101 -80 -167 -177 -167c-98 0 -175 64 -175 159c0 85 70 156 144 188c-72 37 -125 94 -125 169c0 97 77 166 166 166zM239 640c-65 0 -128 -54 -128 -123c0 -78 56 -132 125 -164
c67 25 134 90 134 155c0 85 -49 132 -131 132zM234 323c-76 -33 -142 -91 -142 -165c0 -82 61 -136 139 -136c86 0 141 62 141 130c0 78 -53 131 -138 171z" />
    <glyph glyph-name="nine" unicode="9" 
d="M84 -10l-2 31c181 19 289 196 291 379c-25 -57 -81 -102 -160 -102c-101 0 -164 86 -164 185c0 109 81 189 182 189c115 0 179 -112 179 -246c0 -247 -144 -420 -326 -436zM225 640c-75 0 -137 -63 -137 -151c0 -84 45 -158 134 -158c84 0 146 71 146 130
c0 89 -52 179 -143 179z" />
    <glyph glyph-name="asterisk" unicode="*" horiz-adv-x="348" 
d="M184 501l146 53l10 -31l-150 -42l97 -122l-27 -19l-86 128l-86 -128l-27 19l97 122l-150 42l10 31l146 -53l-6 154h32z" />
    <glyph glyph-name="backslash" unicode="\" horiz-adv-x="385" 
d="M380 -97h-32l-343 846h33z" />
    <glyph glyph-name="colon" unicode=":" horiz-adv-x="193" 
d="M88 488c18 0 33 -15 33 -33s-15 -33 -33 -33s-33 15 -33 33s15 33 33 33zM88 60c18 0 33 -15 33 -33s-15 -33 -33 -33s-33 15 -33 33s15 33 33 33z" />
    <glyph glyph-name="comma" unicode="," horiz-adv-x="193" 
d="M2 -142l-29 -5l95 250l41 2z" />
    <glyph glyph-name="ellipsis" unicode="&#x2026;" horiz-adv-x="513" 
d="M88 60c18 0 33 -15 33 -33s-15 -33 -33 -33s-33 15 -33 33s15 33 33 33zM248 60c18 0 33 -15 33 -33s-15 -33 -33 -33s-33 15 -33 33s15 33 33 33zM408 60c18 0 33 -15 33 -33s-15 -33 -33 -33s-33 15 -33 33s15 33 33 33z" />
    <glyph glyph-name="exclam" unicode="!" horiz-adv-x="222" 
d="M124 130h-26l-8 558h42zM111 60c18 0 33 -15 33 -33s-15 -33 -33 -33s-33 15 -33 33s15 33 33 33z" />
    <glyph glyph-name="exclamdown" unicode="&#xa1;" horiz-adv-x="222" 
d="M111 422c-18 0 -33 15 -33 33s15 33 33 33s33 -15 33 -33s-15 -33 -33 -33zM124 352l8 -558h-42l8 558h26z" />
    <glyph glyph-name="numbersign" unicode="#" 
d="M329 408l-33 -154h97v-28h-103l-53 -246h-29l53 246h-104l-53 -246h-29l53 246h-88v28h94l33 154h-92v28h98l53 246h29l-53 -246h104l53 246h29l-53 -246h93v-28h-99zM267 254l33 154h-104l-33 -154h104z" />
    <glyph glyph-name="period" unicode="." horiz-adv-x="193" 
d="M88 60c18 0 33 -15 33 -33s-15 -33 -33 -33s-33 15 -33 33s15 33 33 33z" />
    <glyph glyph-name="question" unicode="?" horiz-adv-x="374" 
d="M26 619l-4 34c34 27 85 45 143 45c80 0 165 -46 165 -142c0 -59 -30 -115 -117 -242c-37 -54 -58 -121 -60 -184h-32c2 70 20 134 66 203c84 126 107 172 107 221c0 77 -63 112 -135 112c-44 0 -97 -18 -133 -47zM139 60c18 0 33 -15 33 -33s-15 -33 -33 -33
s-33 15 -33 33s15 33 33 33z" />
    <glyph glyph-name="questiondown" unicode="&#xbf;" horiz-adv-x="374" 
d="M235 422c-18 0 -33 15 -33 33s15 33 33 33s33 -15 33 -33s-15 -33 -33 -33zM348 -137l4 -34c-34 -27 -85 -45 -143 -45c-80 0 -165 46 -165 142c0 59 30 115 117 242c37 54 58 121 60 184h32c-2 -70 -20 -134 -66 -203c-84 -126 -107 -172 -107 -221
c0 -77 63 -112 135 -112c44 0 97 18 133 47z" />
    <glyph glyph-name="quotedbl" unicode="&#x22;" horiz-adv-x="267" 
d="M99 467h-22l-4 268h37zM179 467h-22l-4 268h37z" />
    <glyph glyph-name="quotesingle" unicode="'" horiz-adv-x="187" 
d="M99 467h-22l-4 268h37z" />
    <glyph glyph-name="semicolon" unicode=";" horiz-adv-x="193" 
d="M88 488c18 0 33 -15 33 -33s-15 -33 -33 -33s-33 15 -33 33s15 33 33 33zM2 -142l-29 -5l95 250l41 2z" />
    <glyph glyph-name="slash" unicode="/" horiz-adv-x="385" 
d="M37 -97h-32l342 846h33z" />
    <glyph glyph-name="underscore" unicode="_" horiz-adv-x="500" 
d="M500 -66h-500v28h500v-28z" />
    <glyph glyph-name="braceleft" unicode="{" horiz-adv-x="397" 
d="M296 754v-28c-69 0 -94 -32 -88 -107l16 -196c4 -55 -10 -86 -55 -96c49 -11 60 -40 55 -98l-16 -194c-6 -75 19 -109 88 -109v-28c-97 0 -127 43 -116 168l14 156c6 66 -15 87 -72 87v34c57 0 75 21 70 87l-12 156c-10 125 19 168 116 168z" />
    <glyph glyph-name="braceright" unicode="}" horiz-adv-x="397" 
d="M101 726v28c97 0 127 -43 116 -168l-14 -156c-6 -66 15 -87 72 -87v-34c-57 0 -75 -21 -70 -87l12 -156c10 -125 -19 -168 -116 -168v28c69 0 94 32 88 107l-16 196c-4 55 10 86 55 96c-49 11 -60 40 -55 98l16 194c6 75 -19 109 -88 109z" />
    <glyph glyph-name="bracketleft" unicode="[" horiz-adv-x="359" 
d="M259 721h-116v-790h116v-28h-146v846h146v-28z" />
    <glyph glyph-name="bracketright" unicode="]" horiz-adv-x="359" 
d="M246 -97h-146v28h116v790h-116v28h146v-846z" />
    <glyph glyph-name="parenleft" unicode="(" horiz-adv-x="355" 
d="M242 759l17 -13c-74 -104 -128 -226 -128 -420s54 -316 128 -420l-17 -13c-86 90 -145 254 -145 433s59 343 145 433z" />
    <glyph glyph-name="parenright" unicode=")" horiz-adv-x="355" 
d="M96 746l17 13c86 -90 145 -254 145 -433s-59 -343 -145 -433l-17 13c74 104 128 226 128 420s-54 316 -128 420z" />
    <glyph glyph-name="emdash" unicode="&#x2014;" horiz-adv-x="1000" 
d="M944 256h-888v28h888v-28z" />
    <glyph glyph-name="endash" unicode="&#x2013;" horiz-adv-x="500" 
d="M444 256h-388v28h388v-28z" />
    <glyph glyph-name="hyphen" unicode="-" horiz-adv-x="348" 
d="M292 256h-236v28h236v-28z" />
    <glyph glyph-name="guillemotleft" unicode="&#xab;" horiz-adv-x="430" 
d="M115 252l119 -169h-40l-119 169l119 169h40zM225 252l119 -169h-40l-119 169l119 169h40z" />
    <glyph glyph-name="guillemotright" unicode="&#xbb;" horiz-adv-x="430" 
d="M245 252l-119 -169h-40l119 169l-119 169h40zM355 252l-119 -169h-40l119 169l-119 169h40z" />
    <glyph glyph-name="guilsinglleft" unicode="&#x2039;" horiz-adv-x="320" 
d="M115 252l119 -169h-40l-119 169l119 169h40z" />
    <glyph glyph-name="guilsinglright" unicode="&#x203a;" horiz-adv-x="320" 
d="M245 252l-119 -169h-40l119 169l-119 169h40z" />
    <glyph glyph-name="quotedblbase" unicode="&#x201e;" horiz-adv-x="293" 
d="M2 -142l-29 -5l95 250l41 2zM102 -142l-29 -5l95 250l41 2z" />
    <glyph glyph-name="quotedblleft" unicode="&#x201c;" horiz-adv-x="305" 
d="M77 465l-40 -2l118 267l27 5zM177 465l-40 -2l118 267l27 5z" />
    <glyph glyph-name="quotedblright" unicode="&#x201d;" horiz-adv-x="304" 
d="M64 468l-27 -5l105 270l40 2zM154 468l-27 -5l105 270l40 2z" />
    <glyph glyph-name="quoteleft" unicode="&#x2018;" horiz-adv-x="205" 
d="M77 465l-40 -2l118 267l27 5z" />
    <glyph glyph-name="quoteright" unicode="&#x2019;" horiz-adv-x="214" 
d="M64 468l-27 -5l105 270l40 2z" />
    <glyph glyph-name="space" unicode=" " horiz-adv-x="234" 
 />
    <glyph glyph-name="dollar" unicode="$" 
d="M376 597l-5 -33c-35 24 -77 39 -129 39c-62 0 -120 -48 -120 -108c0 -69 40 -105 117 -141c100 -47 148 -89 148 -163c0 -95 -71 -150 -143 -160v-77h-30v76c-52 1 -100 13 -142 39l3 32c50 -32 100 -42 150 -42c75 0 128 57 128 124c0 68 -35 98 -125 140
c-93 43 -140 91 -140 163c0 88 72 138 136 145v77h30v-76c51 -2 93 -15 122 -35z" />
    <glyph glyph-name="sterling" unicode="&#xa3;" horiz-adv-x="489" 
d="M451 651l-3 -34c-30 17 -54 23 -95 23c-77 0 -136 -70 -136 -163c0 -36 5 -77 17 -142h169v-28h-162c5 -31 8 -62 8 -81c0 -107 -58 -164 -115 -193h307v-32h-367v24c66 25 139 91 139 199c0 27 -2 52 -7 83h-137v28h129c-11 61 -17 107 -17 138c0 131 91 199 172 199
c45 0 72 -7 98 -21z" />
    <glyph glyph-name="yen" unicode="&#xa5;" horiz-adv-x="480" 
d="M276 366h117v-28h-137v-87h137v-28h-137v-223h-34v223h-137v28h137v87h-137v28h120l-155 289h41l149 -293l154 293h36z" />
    <glyph glyph-name="asciitilde" unicode="~" horiz-adv-x="562" 
d="M475 333h29c0 -75 -37 -123 -101 -123c-35 0 -67 11 -131 46c-62 34 -90 41 -112 41c-42 0 -73 -26 -73 -94h-29c0 75 37 123 101 123c35 0 67 -10 131 -46c62 -35 90 -41 112 -41c42 0 73 26 73 94z" />
    <glyph glyph-name="equal" unicode="=" horiz-adv-x="598" 
d="M532 357h-466v28h466v-28zM532 155h-466v28h466v-28z" />
    <glyph glyph-name="greater" unicode="&#x3e;" horiz-adv-x="568" 
d="M482 263v-26l-401 -207v37l362 184l-362 185v35z" />
    <glyph glyph-name="less" unicode="&#x3c;" horiz-adv-x="568" 
d="M487 434l-362 -184l362 -185v-35l-401 208v26l401 207v-37z" />
    <glyph glyph-name="percent" unicode="%" horiz-adv-x="742" 
d="M206 -20h-34l384 702h34zM195 672c79 0 126 -74 126 -176c0 -101 -47 -176 -126 -176s-126 75 -126 176c0 102 47 176 126 176zM195 644c-54 0 -94 -50 -94 -148s40 -148 94 -148c55 0 94 50 94 148s-40 148 -94 148zM547 342c79 0 126 -74 126 -176
c0 -101 -47 -176 -126 -176s-126 75 -126 176c0 102 47 176 126 176zM547 314c-54 0 -94 -50 -94 -148s40 -148 94 -148c55 0 94 50 94 148s-40 148 -94 148z" />
    <glyph glyph-name="plus" unicode="+" horiz-adv-x="562" 
d="M296 284h207v-28h-207v-226h-30v226h-207v28h207v226h30v-226z" />
    <glyph glyph-name="ampersand" unicode="&#x26;" horiz-adv-x="581" 
d="M502 -1l-67 80c-52 -54 -122 -89 -208 -89c-100 0 -185 68 -185 163c0 93 65 161 153 216c-57 71 -79 115 -79 170c0 93 74 159 155 159c84 0 134 -67 134 -132c0 -75 -51 -134 -164 -204l196 -235c40 55 65 128 69 209h30c-3 -85 -31 -169 -80 -232l88 -105h-42z
M268 667c-59 0 -118 -52 -118 -123c0 -54 14 -87 72 -158c112 66 149 120 149 174c0 70 -41 107 -103 107zM416 102l-202 244c-93 -61 -138 -118 -138 -184c0 -86 71 -141 154 -141c75 0 139 30 186 81z" />
    <glyph glyph-name="asciicircum" unicode="^" horiz-adv-x="412" 
d="M372 225h-37l-127 286l-132 -286h-36l152 316h32z" />
    <glyph glyph-name="at" unicode="@" horiz-adv-x="861" 
d="M622 -52l3 -30c-70 -36 -141 -54 -225 -54c-178 0 -332 124 -332 331c0 250 200 414 407 414c195 0 315 -164 315 -323c0 -138 -77 -235 -182 -235c-51 0 -88 38 -93 92c-24 -55 -80 -98 -146 -98c-55 0 -110 47 -110 138c0 145 99 249 229 249c34 0 66 -5 97 -17
l-38 -240c-9 -59 20 -98 71 -98c60 0 140 65 140 201c0 167 -108 303 -296 303c-171 0 -364 -154 -364 -376c0 -216 157 -313 313 -313c74 0 144 19 211 56zM525 242l25 150c-19 6 -43 9 -66 9c-87 0 -191 -76 -191 -211c0 -66 32 -114 90 -114c57 0 122 43 142 166z" />
    <glyph glyph-name="bar" unicode="|" horiz-adv-x="330" 
d="M180 -235h-30v1000h30v-1000z" />
    <glyph glyph-name="Euro" unicode="&#x20ac;" 
d="M71 392h22c16 172 95 280 228 280c53 0 90 -12 111 -28l-4 -35c-29 22 -63 31 -108 31c-119 0 -180 -107 -193 -248h208l-5 -28h-206c-2 -20 -2 -65 -1 -88h195l-4 -28h-189c17 -163 90 -226 187 -226c45 0 84 13 111 33l5 -33c-37 -24 -69 -32 -125 -32
c-119 0 -197 96 -210 258h-39l4 28h32c-1 22 -1 66 1 88h-24z" />
    <glyph glyph-name="acute" unicode="&#xb4;" horiz-adv-x="500" 
d="M210 537l-31 -2l85 117l44 3z" />
    <glyph glyph-name="breve" unicode="&#x2d8;" horiz-adv-x="500" 
d="M154 643h27c4 -54 31 -83 69 -83s65 29 69 83h27c-4 -62 -35 -109 -96 -109c-62 0 -92 46 -96 109z" />
    <glyph glyph-name="cedilla" unicode="&#xb8;" horiz-adv-x="500" 
d="M277 7l-23 -40c43 -5 62 -30 62 -60c0 -46 -39 -68 -86 -68c-16 0 -35 4 -53 13l5 24c19 -9 34 -12 51 -12c30 0 49 18 49 40c0 28 -17 41 -73 41l37 62h31z" />
    <glyph glyph-name="circumflex" unicode="&#x2c6;" horiz-adv-x="500" 
d="M336 534h-34l-52 91l-52 -91h-33l71 112h29z" />
    <glyph glyph-name="dieresis" unicode="&#xa8;" horiz-adv-x="500" 
d="M190 619c15 0 27 -12 27 -27s-12 -27 -27 -27s-27 12 -27 27s12 27 27 27zM310 619c15 0 27 -12 27 -27s-12 -27 -27 -27s-27 12 -27 27s12 27 27 27z" />
    <glyph glyph-name="grave" unicode="`" horiz-adv-x="500" 
d="M192 653l85 -117l-31 2l-98 118z" />
    <glyph glyph-name="ring" unicode="&#x2da;" horiz-adv-x="500" 
d="M250 665c36 0 65 -27 65 -64s-29 -64 -65 -64s-65 27 -65 64s29 64 65 64zM250 641c-21 0 -37 -14 -37 -40s16 -40 37 -40s37 14 37 40s-16 40 -37 40z" />
    <glyph glyph-name="tilde" unicode="&#x2dc;" horiz-adv-x="500" 
d="M344 618v-7c0 -28 -18 -43 -42 -43c-19 0 -38 5 -60 13c-19 7 -34 10 -43 10c-14 0 -20 -10 -20 -23h-23v7c0 28 18 43 42 43c19 0 38 -5 60 -13c18 -7 34 -10 43 -10c14 0 20 10 20 23h23z" />
    </font>
</defs>
</svg>
